<?xml version="1.0" encoding="utf-8"?>
<!-- Generator: Adobe Illustrator 27.5.0, SVG Export Plug-In . SVG Version: 6.00 Build 0)  -->
<svg version="1.1" id="Layer_1" xmlns="http://www.w3.org/2000/svg" xmlns:xlink="http://www.w3.org/1999/xlink" x="0px" y="0px"
	 viewBox="0 0 450.027 437" style="enable-background:new 0 0 450.027 437;" xml:space="preserve">
<g>
	<g id="XMLID_91_">
		<rect id="XMLID_94_" x="0.002" y="367.346" style="fill:#3A2219;" width="450.022" height="13.092"/>
		<rect id="XMLID_93_" x="0.002" y="362.727" style="fill:#AA6B52;" width="450.022" height="5.375"/>
		<rect id="XMLID_92_" x="0.002" y="370.413" style="fill:#190E0B;" width="450.022" height="2.559"/>
	</g>
	<g id="XMLID_87_">
		<rect id="XMLID_90_" x="159.46" y="374.762" style="fill:#3A2219;" width="10.91" height="62.238"/>
		<rect id="XMLID_89_" x="169.74" y="374.762" style="fill:#AA6B52;" width="4.479" height="62.238"/>
		<rect id="XMLID_88_" x="167.682" y="374.762" style="fill:#190E0B;" width="2.132" height="62.238"/>
	</g>
	<g id="XMLID_49_">
		<rect id="XMLID_264_" x="0.004" y="289.761" style="fill:#3A2219;" width="450.022" height="13.092"/>
		<rect id="XMLID_263_" x="0.004" y="286.15" style="fill:#AA6B52;" width="450.022" height="5.375"/>
		<rect id="XMLID_262_" x="0.004" y="292.828" style="fill:#190E0B;" width="450.022" height="2.559"/>
	</g>
	<g id="XMLID_50_">
		<rect id="XMLID_261_" x="0.004" y="216.623" style="fill:#3A2219;" width="450.022" height="13.092"/>
		<rect id="XMLID_260_" x="0.004" y="212.004" style="fill:#AA6B52;" width="450.022" height="5.375"/>
		<rect id="XMLID_259_" x="0.004" y="218.682" style="fill:#190E0B;" width="450.022" height="2.559"/>
	</g>
	<g id="XMLID_52_">
		<rect id="XMLID_258_" x="0.004" y="142.84" style="fill:#3A2219;" width="450.022" height="13.092"/>
		<rect id="XMLID_257_" x="0.004" y="138.221" style="fill:#AA6B52;" width="450.022" height="5.375"/>
		<rect id="XMLID_256_" x="0.004" y="145.906" style="fill:#190E0B;" width="450.022" height="2.559"/>
	</g>
	<g id="XMLID_53_">
		<rect id="XMLID_255_" x="0.004" y="67.927" style="fill:#3A2219;" width="450.022" height="13.092"/>
		<rect id="XMLID_254_" x="0.004" y="63.308" style="fill:#AA6B52;" width="450.022" height="5.375"/>
		<rect id="XMLID_253_" x="0.004" y="70.994" style="fill:#190E0B;" width="450.022" height="2.559"/>
	</g>
	<path id="XMLID_116_" style="fill:#513023;" d="M406.304,47.597c-0.056,0.001-0.116,0-0.172,0.001
		c-0.096,0.012-0.192,0.02-0.288,0.032L406.304,47.597z"/>
	<path id="XMLID_120_" style="fill:#35211D;" d="M406.37,50.096c-0.026,0-0.053,0-0.079,0c-0.05,0.006-0.1,0.01-0.151,0.017
		L406.37,50.096z"/>
	<g>
		<g id="XMLID_43_">
			<polygon id="XMLID_48_" style="fill:#7C492D;" points="389.516,150.351 299.265,149.042 223.481,152.217 135.253,150.351 
				83.754,152.318 0,150.351 0,215.858 52.332,215.858 130.228,212.514 232.68,215.858 334.017,213.469 450.022,215.858 
				450.022,150.351 433.022,152.066 			"/>
			<g id="XMLID_39_">
				<path id="XMLID_204_" style="fill:#8C5636;" d="M143.654,196.858c-0.011-2.004-6.849-7.634,36.743-12.088
					c15.128-1.545,40.104-9.157,53.703-9.158c31.412-0.001,51.066,6.403,65.012,9.16c7.531,1.489,13.479,2.665,18.255,2.665
					c3.31,0,5.932-0.547,8.252-1.721c13.666-6.918,40.479-18.897,77.612-18.897c1.836,0,35.707,4.038,46.792,5.366v-11.37
					c-3.083-0.015-6.328-0.012-9.793,0.008c0,0-19.129-0.269-21.383-0.269c-37.729,0-69.35,3.968-83.412,11.085
					c-1.623,0.822-15.509,8.569-18.068,8.569c-4.332,0-10.087-1.138-17.373-2.578c-14.12-2.791-35.459-7.011-67.314-7.01
					c-13.752,0.001-28.472,0.792-43.753,2.354c-34.856,3.561-57.353,12.524-57.282,25.292c0.034,6.206,5.207,11.021,12.485,14.703
					l27.802,0.907C157.666,209.566,143.687,202.983,143.654,196.858z"/>
				<path id="XMLID_205_" style="fill:#6C4029;" d="M245.844,215.547c-2.191-0.508-4.397-0.998-6.617-1.454
					c-16.528-3.393-26.641-8.535-33.974-9.198c-10.814-0.978-24.878-0.343-30.648-2.93c2.196-0.758,1.017-3.591,8.114-4.561
					c28.676-3.923,48.916-9.859,64.24-9.859c18.37-0.001,24.104,3.038,27.042,4.82c16.824,10.2,34.068,4.549,49.477,1.279
					c19.993-4.243,26.082-11.465,48.712-11.883c6.768-0.124,36.586,3.201,44.181,2.651c8.903-0.645,22.921-6.025,31.613-6.025
					c0.654,0,1.338-0.001,2.039-0.002v-4.33c-3.579-0.07-7.172-0.089-10.703-0.089c-8.855,0-18.144,0.674-27.127,1.325
					c-7.533,0.546-22.692-2.81-29.338-2.687c-23.064,0.425-37.138,11.863-57.322,16.146c-15.157,3.217-21.118,1.446-29.518,1.446
					c-5.007,0-32.444-11.421-52.674-8.193c-15.343,2.448-32.351,4.263-61.236,8.215c-17.342,2.372-30.609,2.709-30.544,7.209
					c0.055,3.769,12.72,9.333,25.751,12.703c7.9,2.043,16.76,3.439,22.036,3.916c3.989,0.361,9.26,0.55,16.037,1.249l17.296,0.564
					L245.844,215.547z"/>
				<path id="XMLID_206_" style="fill:#583524;" d="M314.209,213.655c-0.025,0.017-0.614,0.136-1.593,0.318l20.342-0.479
					c-4.228-0.863-7.485-1.459-9.217-1.459C318.782,212.035,315.842,212.535,314.209,213.655z"/>
				<path id="XMLID_207_" style="fill:#583524;" d="M436.511,211.934c-4.991-1.234-10.402-1.86-16.083-1.86
					c-7.866,0-14.711,2.388-20.746,4.747l50.341,1.037v-3.493C445.596,212.673,441.021,213.048,436.511,211.934z"/>
				<path id="XMLID_208_" style="fill:#583524;" d="M233.915,200.069c-0.491-0.426-5.045-2.406-5.224-2.644
					c7.211-6.894,25.63-0.155,28.463,1.259c6.353,3.17,19.671,8.489,37.476,8.489c9.792,0,19.753-1.605,29.607-4.769
					c18.117-5.817,35.146-8.716,53.404-9.076c13.229-0.26,27.931,4.108,39.058-0.273c15.53-6.115,25.263-5.734,33.323-4.513v-5.959
					c-11.12,0.291-20.466,2.053-33.981,4.753c-11.187,2.235-25.872-0.772-38.949-0.514c-18.5,0.364-35.297,3.992-53.893,9.962
					c-9.516,3.056-22.933,5.78-32.375,5.78c-17.108,0-26.648-13.725-45.712-11.888c-4.505,0.434-31.638,2.932-33.051,9.159
					c-0.295,1.301,13.186,9.204,44.678,15.456l18.178-0.428C257.493,211.571,239.142,204.598,233.915,200.069z"/>
				<path id="XMLID_211_" style="fill:#8C5636;" d="M446.262,196.809c-10.69,3.36-52.905,2.785-61.676,0.978
					c-8.772-1.807-23.848-1.446-45.504,3.976c-21.655,5.422-9.868,5.422,7.675,9.037c17.543,3.615,40.295-0.361,46.874-3.462
					c6.579-3.101,38.651-3.044,48.519-0.636c2.139,0.522,4.885,0.686,7.872,0.623V195.8
					C448.642,196.121,447.366,196.462,446.262,196.809z M368.687,208.631c-10.691-0.723-17.544-1.891-21.929-2.391
					c-4.386-0.5,24.945-8.145,40.569-2.334C387.327,203.905,379.377,209.354,368.687,208.631z"/>
				<path id="XMLID_212_" style="fill:#77452B;" d="M346.757,206.239c4.386,0.5,11.239,1.669,21.929,2.391
					c10.691,0.723,18.64-4.726,18.64-4.726C371.702,198.095,342.371,205.739,346.757,206.239z"/>
				<path id="XMLID_213_" style="fill:#8C5636;" d="M280.147,208.697c-13.98-1.018-42.764-14.542-35.361-6.961
					s37.28,11.233,48.245,10.501c10.965-0.732,25.219-3.54,25.219-3.54C321.538,206.232,294.127,209.715,280.147,208.697z"/>
				<path id="XMLID_214_" style="fill:#6C4029;" d="M65.077,214.766c-12.889-0.332-35.134-8.014-48.002-6.875
					C9.056,208.6,5.669,212.254,0,212.412v3.446h52.332l54.947-2.358C94.174,212.837,76.958,215.072,65.077,214.766z"/>
				<path id="XMLID_215_" style="fill:#583524;" d="M73.078,205.883c12.027,0.115,29.016,1.65,40.252-4.148
					c5.563-2.871,9.707-6.82,14.334-11.192c8.9-8.41,31.67-19.011,38.413-21.633c7.452-2.898,54.599-6.881,70.36-5.903
					c32.105,1.992,53.401,8.2,85.524,6.073c11.553-0.765,33.555-10.311,44.944-12.384c12.378-2.252,27.952,0.408,40.44-0.259
					c11.848-0.633,27.146-1.171,39.002-1.448c1.304-0.031,2.521-0.127,3.676-0.258v-4.38l-17.001,1.715l-43.506-1.715l-34.956-0.507
					c-4.374,0.464-8.65,1.143-12.719,2.183c-15.783,4.032-25.521,8.603-41.602,8.606c-16.137,0.003-36.125-1.96-52.242-2.832
					c-15.707-0.85-31.568-2.94-47.293-2.331c-14.655,0.567-28.982,4.662-42.71,10.535c-11.543,4.938-24.148,7.416-34.435,15.609
					c-4.535,3.612-8.593,7.46-13.744,9.86c-4.997,2.329-14.666,6.142-19.986,6.714c-10.606,1.14-26.393,0.608-37.002-0.294
					c-12.709-1.081-16.313-6.995-28.917-9.057c-7.977-1.305-15.93-1.65-23.91-1.717v7.236c10.472,1.844,20.422,5.209,31.576,7.379
					C46.124,204.566,58.31,205.742,73.078,205.883z"/>
				<path id="XMLID_216_" style="fill:#603823;" d="M245.012,151.315c2.411,0.428,4.704,0.781,6.825,1.006
					c27.952,2.967,45.154,0.846,70.219-2.948l-22.791-0.331L245.012,151.315z"/>
				<path id="XMLID_217_" style="fill:#603823;" d="M105.079,185.545c5.92-1.851,24.151-17.857,46.481-21.958
					c9.975-1.832,20.833-7.627,31.342-12.228l-18.105-0.383c-4.68,2.627-9.466,5.137-14.715,6.932
					c-6.233,2.132-25.343,4.94-31.001,8.82c-6.502,4.46-12.542,9.419-20.002,11.467c-20.748,5.695-35.683,9.688-56.003,2.94
					c-14.149-4.698-28.435-7.977-43.076-9.664v7.103c21.865,4.59,42.007,13.815,65.561,13.974
					C79.841,192.643,91.206,189.883,105.079,185.545z"/>
				<path id="XMLID_218_" style="fill:#8C5636;" d="M111.83,165.65c6.674-3.958,15.239-9.705,22.401-11.735
					c2.113-0.599,5.754-1.906,9.666-3.381l-8.643-0.183l-18.166,0.694c-5.172,3.317-10.686,8.168-14.758,10.881
					c-6.055,4.034-8.494,2.613-14.96,5.75c-5.661,2.747-15.398,5.454-21.375,4.924c-12.185-1.079-20.485-7.141-32.631-8.622
					c-6.11-0.745-11.904-1.544-17.836-3.511c-5.173-1.715-10.234-2.899-15.527-3.295v5.95c12.489,1.437,33.817,9.724,43.66,12.485
					C73.629,184.015,94.229,176.086,111.83,165.65z"/>
				<path id="XMLID_219_" style="fill:#6C4029;" d="M21.302,155.261c2.934-0.003,15.879,1.967,18.192,2.553
					c15.212,3.854,27.998,16.139,42.571,6.66c3.391-2.205,13.122-5.79,16.598-7.84c1.994-1.176,3.458-3.118,4.877-5.071
					l-8.553,0.327c-0.425,0.555-0.814,0.981-1.115,1.178c-0.729,0.477-16.034,4.941-17.752,5.737
					c-3.472,1.608-7.466,1.409-11.107,1.009c-2.558-0.281-6.377-0.739-8.144-3.349c-0.249-0.367-0.608-0.871-0.688-1.343
					c-0.117-0.697-0.025-0.535,0.547-0.654c1.216-0.254,2.445-0.19,3.654-0.425c1.82-0.354,3.657-0.972,5.407-1.653
					c0.442-0.172,0.909-0.314,1.378-0.461l-59.005-1.385c1.117,1.018,2.591,1.57,3.994,2.318
					C15.388,154.586,17.754,155.265,21.302,155.261z"/>
				<path id="XMLID_220_" style="fill:#77452B;" d="M67.166,151.928c-0.468,0.147-0.935,0.288-1.378,0.461
					c-1.749,0.682-3.587,1.3-5.407,1.653c-1.209,0.235-2.439,0.171-3.654,0.425c-0.572,0.119-0.665-0.043-0.547,0.654
					c0.079,0.472,0.439,0.976,0.688,1.343c1.767,2.61,5.587,3.067,8.144,3.349c3.64,0.4,7.634,0.599,11.107-1.009
					c1.718-0.796,17.023-5.26,17.752-5.737c0.302-0.197,0.69-0.623,1.115-1.178l-11.232,0.429L67.166,151.928z"/>
			</g>
		</g>
		<path id="XMLID_121_" style="fill:#513023;" d="M9.02,197.15c4.33-0.475,8.67-0.919,13.054-1.145
			c2.19-0.127,4.395-0.198,6.623-0.208c2.256,0.036,4.451,0.039,6.988,0.563l0.477,0.103c0.07,0.011,0.246,0.06,0.363,0.088
			l0.788,0.199c0.52,0.127,1.065,0.281,1.555,0.374c0.998,0.212,1.998,0.443,3.042,0.625c2.064,0.386,4.153,0.692,6.256,0.918
			c2.102,0.232,4.215,0.403,6.333,0.507c2.077,0.102,4.213,0.147,6.224,0.11c4.462-0.542,8.911-0.968,13.374-1.392
			c4.512-0.417,9.03-0.799,13.568-1.091c2.271-0.124,4.546-0.231,6.832-0.297c2.295-0.048,4.573-0.109,6.937,0.007
			c2.325,0.097,4.585,0.314,6.835,0.492l6.745,0.62c4.491,0.42,8.981,0.794,13.47,1.163c4.488,0.384,8.978,0.709,13.471,0.95
			c4.491,0.276,8.986,0.443,13.476,0.415c2.245-0.007,4.489-0.09,6.716-0.327c1.115-0.105,2.221-0.271,3.316-0.508
			c1.069-0.286,2.18-0.574,3.081-1.275c-1.967,1.151-4.248,1.266-6.457,1.402c-2.221,0.127-4.456,0.104-6.693,0.003
			c-4.471-0.191-8.942-0.535-13.411-0.958c-4.47-0.409-8.938-0.879-13.408-1.368l-13.421-1.491l-6.736-0.741
			c-2.249-0.218-4.516-0.477-6.91-0.617c-2.473-0.166-4.771-0.123-7.106-0.092c-2.318,0.046-4.613,0.134-6.902,0.239
			c-4.572,0.259-9.114,0.584-13.645,0.988c-4.438,0.422-8.846,0.845-13.292,1.382c0.056-0.001,0.117,0,0.173-0.002l-0.46,0.034
			c0.096-0.012,0.191-0.02,0.287-0.032c-1.859,0.032-3.95-0.011-5.931-0.109c-2.069-0.104-4.133-0.268-6.183-0.468
			c-2.052-0.201-4.086-0.479-6.086-0.833l-1.489-0.273l-1.417-0.292c-0.449-0.078-1.019-0.233-1.534-0.353l-0.79-0.192l-0.198-0.048
			l-0.099-0.024l-0.025-0.006c-0.086-0.024,0.09,0.025,0.058,0.017l-0.07-0.015l-0.558-0.121l-1.118-0.224l-0.978-0.114
			l-0.972-0.104l-0.91-0.049c-1.232-0.083-2.371-0.069-3.537-0.079c-2.289,0.039-4.532,0.156-6.746,0.321
			c-4.434,0.305-8.793,0.829-13.137,1.382c-2.959,0.405-5.906,0.843-8.847,1.307v1.744C3.001,197.859,6.007,197.492,9.02,197.15z"/>
		<path id="XMLID_122_" style="fill:#513023;" d="M9.534,202.922c2.147-0.103,4.292-0.191,6.43-0.258
			c2.137-0.051,4.269-0.129,6.383-0.145c2.117-0.031,4.21,0.006,6.257,0.08c1,0.055,2.031,0.088,2.959,0.198l0.712,0.069l0.64,0.102
			l0.633,0.098l0.469,0.127l0.236,0.055l0.454,0.128l0.781,0.227c0.535,0.15,1.004,0.305,1.617,0.45
			c1.173,0.306,2.343,0.57,3.454,0.791c2.257,0.462,4.514,0.831,6.77,1.113c2.256,0.296,4.514,0.501,6.775,0.628
			c2.288,0.128,4.463,0.202,6.898,0.176l0.176-0.002l0.284-0.031c4.426-0.492,8.903-1.023,13.356-1.468l6.68-0.692l6.666-0.616
			c2.215-0.201,4.427-0.385,6.62-0.527c1.088-0.057,2.198-0.145,3.264-0.17l1.613-0.068l1.557-0.02c2.12-0.012,4.354,0.1,6.61,0.178
			l6.775,0.213c2.262,0.075,4.531,0.127,6.8,0.156c2.27,0.029,4.54,0.074,6.814,0.061c4.546,0.003,9.102-0.09,13.659-0.294
			c4.557-0.236,9.123-0.554,13.671-1.216c2.271-0.329,4.542-0.732,6.783-1.299c1.117-0.296,2.225-0.656,3.301-1.084
			c1.056-0.47,2.147-0.974,2.915-1.842c-0.819,0.804-1.915,1.231-2.973,1.645c-1.081,0.367-2.188,0.664-3.304,0.899
			c-2.236,0.457-4.498,0.753-6.76,0.975c-2.263,0.233-4.533,0.365-6.8,0.466c-2.269,0.107-4.537,0.165-6.805,0.206
			c-4.535,0.036-9.068-0.016-13.596-0.125c-2.265-0.047-4.526-0.151-6.787-0.239l-6.779-0.305l-6.766-0.334
			c-2.254-0.118-4.496-0.272-6.685-0.303c-2.149-0.05-4.388,0.066-6.603,0.172c-2.224,0.123-4.457,0.287-6.69,0.47
			c-4.47,0.337-8.948,0.748-13.423,1.204c-4.474,0.446-8.954,0.977-13.411,1.473l-0.142,0.016l-0.088,0.001
			c-2.301,0.025-4.472-0.047-6.698-0.173c-2.212-0.128-4.42-0.326-6.626-0.589c-2.205-0.257-4.407-0.598-6.601-1.028
			c-1.089-0.206-2.204-0.45-3.318-0.73c-0.571-0.129-1.066-0.285-1.595-0.429l-0.783-0.22l-0.424-0.116l-0.316-0.072
			c-1.701-0.41-3.871-0.53-5.941-0.602c-2.108-0.045-4.239-0.035-6.38,0.033c-2.14,0.056-4.287,0.173-6.437,0.264
			c-2.151,0.107-4.304,0.234-6.458,0.376c-3.12,0.201-6.239,0.458-9.36,0.712v1.714l3.079-0.166L9.534,202.922z"/>
		<path id="XMLID_123_" style="fill:#513023;" d="M60.738,196.784c-0.056,0.001-0.116,0.001-0.173,0.002
			c-0.096,0.012-0.191,0.02-0.287,0.032L60.738,196.784z"/>
		<path id="XMLID_124_" style="fill:#35211D;" d="M162.15,199.823c-2.226,0.237-4.47,0.32-6.716,0.327
			c-4.49,0.028-8.985-0.139-13.476-0.415c-4.492-0.241-8.983-0.566-13.471-0.95c-4.489-0.369-8.979-0.743-13.47-1.163l-6.745-0.62
			c-2.251-0.178-4.511-0.395-6.835-0.492c-2.364-0.115-4.642-0.055-6.937-0.007c-2.287,0.065-4.561,0.172-6.832,0.297
			c-4.538,0.291-9.055,0.674-13.568,1.091c-4.464,0.425-8.913,0.851-13.374,1.392c0.026,0,0.053,0.001,0.078,0l-0.229,0.017
			c0.05-0.006,0.1-0.011,0.151-0.017c-2.012,0.037-4.147-0.009-6.224-0.11c-2.117-0.104-4.231-0.274-6.333-0.507
			c-2.103-0.226-4.192-0.532-6.256-0.918c-1.044-0.182-2.044-0.413-3.042-0.625c-0.49-0.093-1.035-0.247-1.555-0.374l-0.788-0.199
			c-0.118-0.028-0.294-0.077-0.363-0.088l-0.477-0.103c-2.538-0.524-4.732-0.527-6.988-0.563c-2.228,0.011-4.433,0.081-6.623,0.208
			c-4.384,0.226-8.725,0.671-13.054,1.145c-3.013,0.343-6.019,0.709-9.02,1.103v3.433c3.121-0.254,6.241-0.511,9.36-0.712
			c2.154-0.142,4.307-0.27,6.458-0.376c2.151-0.091,4.298-0.208,6.437-0.264c2.141-0.068,4.272-0.078,6.38-0.033
			c2.07,0.073,4.24,0.193,5.941,0.602l0.316,0.072l0.424,0.116l0.783,0.22c0.529,0.144,1.024,0.299,1.595,0.429
			c1.113,0.281,2.229,0.524,3.318,0.73c2.194,0.43,4.395,0.771,6.601,1.028c2.205,0.263,4.413,0.461,6.626,0.589
			c2.226,0.126,4.397,0.197,6.698,0.173l0.088-0.001l0.142-0.016c4.457-0.496,8.937-1.027,13.411-1.473
			c4.475-0.456,8.953-0.867,13.423-1.204c2.233-0.182,4.466-0.347,6.69-0.47c2.215-0.106,4.454-0.222,6.603-0.172
			c2.189,0.031,4.431,0.185,6.685,0.303l6.766,0.334l6.779,0.305c2.261,0.088,4.522,0.193,6.787,0.239
			c4.528,0.109,9.061,0.161,13.596,0.125c2.268-0.041,4.537-0.1,6.805-0.206c2.268-0.101,4.537-0.233,6.8-0.466
			c2.262-0.222,4.524-0.518,6.76-0.975c1.116-0.235,2.223-0.533,3.304-0.899c1.058-0.414,2.154-0.842,2.973-1.645
			c-0.901,0.702-2.012,0.99-3.081,1.275C164.372,199.551,163.266,199.717,162.15,199.823z"/>
		<path id="XMLID_125_" style="fill:#35211D;" d="M60.804,199.284c-0.025,0.001-0.053-0.001-0.078,0
			c-0.05,0.006-0.1,0.011-0.151,0.017L60.804,199.284z"/>
	</g>
	<g>
		<g id="XMLID_42_">
			<polygon id="XMLID_45_" style="fill:#7C492D;" points="294.348,296.783 229.012,300.21 86.31,300.166 0,299.512 0,365.018 
				450.022,365.018 450.022,299.512 362.019,299.512 			"/>
			<g id="XMLID_46_">
				<path id="XMLID_147_" style="fill:#8C5636;" d="M130.32,345.601c-0.011-2.004-6.849-7.634,36.743-12.088
					c15.129-1.546,40.104-9.157,53.703-9.158c31.412-0.001,51.066,6.403,65.012,9.16c7.531,1.489,13.479,2.665,18.255,2.665
					c3.31,0,5.932-0.547,8.252-1.721c13.666-6.918,40.479-18.897,77.612-18.897c2.197,0,50.276,5.784,50.276,5.784
					c3.442,0.121,6.724,0.152,9.85,0.17V309.82c-6.551-0.26-14.173-0.306-23.127-0.254c0,0-19.129-0.269-21.383-0.269
					c-37.729,0-69.35,3.968-83.412,11.085c-1.623,0.822-15.509,8.569-18.069,8.569c-4.332,0-10.087-1.138-17.373-2.578
					c-14.12-2.792-35.459-7.011-67.314-7.01c-13.752,0.001-28.472,0.792-43.753,2.354c-34.856,3.561-57.352,12.524-57.282,25.292
					c0.046,8.27,9.215,14.07,20.336,18.01h28.894C150.853,361.112,130.36,353.02,130.32,345.601z"/>
				<path id="XMLID_148_" style="fill:#6C4029;" d="M225.893,362.837c-16.528-3.393-26.641-8.535-33.974-9.198
					c-10.814-0.978-24.878-0.343-30.648-2.93c2.196-0.758,1.017-3.591,8.114-4.561c28.676-3.923,48.916-9.859,64.24-9.859
					c18.37-0.001,24.104,3.039,27.042,4.82c16.824,10.2,34.068,4.549,49.477,1.279c19.993-4.243,26.082-11.465,48.712-11.883
					c6.768-0.124,36.587,3.201,44.182,2.651c8.903-0.645,22.921-6.025,31.613-6.025c4.323,0,9.741-0.053,15.373,0.282v-4.038
					c-7.754-0.569-16.051-0.665-24.037-0.665c-8.855,0-18.144,0.674-27.127,1.325c-7.533,0.546-22.693-2.81-29.339-2.687
					c-23.064,0.425-37.138,11.863-57.322,16.146c-15.157,3.217-21.118,1.446-29.518,1.446c-5.007,0-32.444-11.422-52.674-8.194
					c-15.342,2.448-32.351,4.263-61.236,8.215c-17.342,2.372-30.609,2.709-30.544,7.208c0.055,3.769,12.719,9.333,25.751,12.703
					c7.9,2.043,16.76,3.439,22.036,3.916c5.415,0.49,13.203,0.668,23.904,2.231h25.665
					C232.392,364.248,229.156,363.507,225.893,362.837z"/>
				<path id="XMLID_149_" style="fill:#583524;" d="M300.875,362.398c-0.099,0.068-9.344,1.797-16.418,2.62H333.2
					c-10.61-2.069-19.481-4.24-22.792-4.24C305.448,360.779,302.508,361.279,300.875,362.398z"/>
				<path id="XMLID_151_" style="fill:#583524;" d="M450.022,360.845c-2.24,0.014-4.934,0.023-8.048,0.023
					c-5.995,0-12.463,1.374-18.797-0.191c-4.991-1.234-10.402-1.86-16.083-1.86c-9.515,0-17.535,3.491-24.435,6.201h18.582
					c1.943-0.258,3.899-0.418,5.853-0.418c2.604,0,5.141,0.145,7.603,0.418h35.326V360.845z"/>
				<path id="XMLID_152_" style="fill:#583524;" d="M220.581,348.812c-0.491-0.426-5.045-2.406-5.224-2.644
					c7.211-6.894,25.63-0.155,28.463,1.259c6.354,3.17,19.671,8.488,37.476,8.488c9.792,0,19.753-1.605,29.608-4.768
					c18.117-5.817,35.146-8.716,53.404-9.076c13.229-0.26,27.931,4.108,39.058-0.273c24.671-9.715,34.721-3.039,46.657-2.638v-7.483
					c-3.041-0.254-6.397-0.399-10.059-0.399c-12.634,0-22.434,1.84-37.256,4.801c-11.188,2.235-25.872-0.772-38.949-0.514
					c-18.5,0.364-35.297,3.992-53.893,9.962c-9.515,3.056-22.933,5.78-32.375,5.78c-17.108,0-26.649-13.725-45.713-11.888
					c-4.504,0.434-31.638,2.932-33.051,9.159c-0.311,1.37,14.676,10.065,49.89,16.44h22.491
					C251.428,362.991,226.779,354.183,220.581,348.812z"/>
				<path id="XMLID_155_" style="fill:#8C5636;" d="M432.928,345.552c-10.691,3.36-52.905,2.785-61.677,0.978
					c-8.772-1.807-23.848-1.446-45.504,3.976c-21.655,5.422-9.868,5.422,7.675,9.037c17.544,3.615,40.295-0.361,46.874-3.462
					c6.579-3.101,38.651-3.044,48.519-0.636c5.222,1.274,14.049,0.417,21.206-0.673v-12.03
					C443.975,342.934,437.203,344.208,432.928,345.552z M355.353,357.374c-10.691-0.723-17.544-1.891-21.929-2.391
					c-4.386-0.5,24.945-8.145,40.569-2.334C373.993,352.648,366.043,358.097,355.353,357.374z"/>
				<path id="XMLID_156_" style="fill:#77452B;" d="M333.423,354.983c4.386,0.5,11.239,1.668,21.929,2.391
					c10.691,0.723,18.64-4.726,18.64-4.726C358.368,346.838,329.038,354.482,333.423,354.983z"/>
				<path id="XMLID_157_" style="fill:#8C5636;" d="M266.813,357.44c-13.98-1.018-42.764-14.542-35.361-6.961
					c7.403,7.581,37.28,11.233,48.245,10.501c10.965-0.732,25.219-3.54,25.219-3.54C308.204,354.976,280.793,358.459,266.813,357.44
					z"/>
				<path id="XMLID_159_" style="fill:#6C4029;" d="M51.743,363.509c-12.889-0.332-35.134-8.014-48.002-6.875
					c-1.372,0.121-2.606,0.33-3.741,0.592v7.793h118.533c-6.073-1.14-11.526-1.297-19.537-2.341
					C85.58,360.928,65.223,363.856,51.743,363.509z"/>
				<path id="XMLID_160_" style="fill:#583524;" d="M59.744,354.627c12.027,0.115,29.016,1.65,40.252-4.148
					c5.563-2.871,9.707-6.819,14.334-11.192c8.9-8.41,31.67-19.011,38.413-21.633c7.452-2.898,54.599-6.881,70.36-5.903
					c32.105,1.992,53.401,8.2,85.524,6.073c11.553-0.765,33.555-10.311,44.944-12.384c12.378-2.252,27.952,0.408,40.44-0.259
					c11.848-0.633,27.146-1.171,39.002-1.448c7.09-0.166,11.678-2.233,17.01-1.73v-2.49h-88.003l-21.402-0.863
					c-4.162,0.462-8.229,1.13-12.11,2.122c-15.783,4.032-25.522,8.603-41.602,8.606c-16.137,0.003-36.125-1.96-52.243-2.832
					c-15.707-0.85-31.568-2.939-47.293-2.331c-14.655,0.567-28.982,4.662-42.71,10.535c-11.543,4.938-24.148,7.416-34.435,15.609
					c-4.536,3.612-8.593,7.46-13.744,9.86c-4.997,2.329-14.667,6.142-19.986,6.714c-10.606,1.14-26.393,0.608-37.002-0.294
					c-12.709-1.081-16.313-6.996-28.917-9.057c-3.528-0.577-7.052-0.962-10.576-1.223v9.743c5.903,1.513,11.875,3.14,18.242,4.379
					C32.79,353.31,44.976,354.485,59.744,354.627z"/>
				<path id="XMLID_162_" style="fill:#603823;" d="M91.745,334.289c5.92-1.851,24.151-17.857,46.481-21.958
					c9.911-1.82,20.693-7.552,31.139-12.139l-18.743-0.006c-4.414,2.455-8.939,4.777-13.875,6.465
					c-6.233,2.132-25.343,4.94-31.001,8.821c-6.502,4.46-12.542,9.419-20.002,11.467c-20.748,5.695-35.683,9.687-56.003,2.94
					c-9.824-3.262-19.714-5.835-29.742-7.673v8.417c16.971,4.7,33.523,10.543,52.227,10.668
					C66.507,341.386,77.872,338.626,91.745,334.289z"/>
				<path id="XMLID_163_" style="fill:#603823;" d="M231.73,300.068c2.392,0.423,4.668,0.773,6.773,0.997
					c29.384,3.119,46.889,0.616,74.138-3.544l-18.292-0.738L231.73,300.068z"/>
				<path id="XMLID_164_" style="fill:#8C5636;" d="M98.496,314.393c6.674-3.957,15.239-9.705,22.401-11.735
					c1.669-0.473,4.293-1.389,7.249-2.479l-24.978-0.008c-5,3.298-10.253,7.887-14.172,10.497c-6.055,4.034-8.494,2.613-14.96,5.75
					c-5.661,2.747-15.399,5.453-21.375,4.924c-12.185-1.079-20.485-7.141-32.631-8.622c-6.11-0.745-11.904-1.544-17.836-3.511
					c-0.733-0.243-1.463-0.474-2.193-0.695v6.229c11.11,3.104,23.489,7.688,30.326,9.606
					C60.295,332.758,80.895,324.83,98.496,314.393z"/>
				<path id="XMLID_165_" style="fill:#6C4029;" d="M26.159,306.558c15.212,3.854,27.998,16.139,42.571,6.66
					c3.391-2.205,13.122-5.79,16.598-7.84c2.042-1.204,3.527-3.21,4.978-5.209l-3.997-0.001l-4.293-0.033
					c-0.566,0.801-1.094,1.424-1.48,1.676c-0.729,0.477-16.034,4.941-17.752,5.737c-3.472,1.608-7.466,1.409-11.107,1.009
					c-2.558-0.281-6.378-0.739-8.144-3.348c-0.249-0.367-0.608-0.871-0.688-1.343c-0.117-0.697-0.025-0.535,0.547-0.654
					c1.216-0.254,2.445-0.19,3.654-0.425c1.82-0.354,3.657-0.972,5.407-1.653c1.041-0.406,2.214-0.641,3.228-1.198L0,299.512v2.692
					c2.666,1.284,4.865,1.804,7.967,1.8C10.901,304.002,23.847,305.972,26.159,306.558z"/>
				<path id="XMLID_166_" style="fill:#77452B;" d="M52.454,301.132c-1.75,0.682-3.587,1.299-5.407,1.653
					c-1.209,0.235-2.439,0.171-3.654,0.425c-0.572,0.119-0.665-0.043-0.547,0.654c0.08,0.471,0.439,0.976,0.688,1.343
					c1.767,2.609,5.587,3.067,8.144,3.348c3.64,0.4,7.634,0.599,11.107-1.009c1.718-0.796,17.023-5.26,17.752-5.737
					c0.386-0.252,0.913-0.876,1.48-1.676l-26.334-0.2C54.668,300.492,53.495,300.727,52.454,301.132z"/>
			</g>
		</g>
		<path id="XMLID_111_" style="fill:#513023;" d="M435.045,342.155l-6.736-0.742c-2.249-0.218-4.516-0.477-6.91-0.617
			c-2.473-0.166-4.772-0.123-7.107-0.092c-2.318,0.046-4.613,0.134-6.902,0.239c-4.572,0.259-9.114,0.583-13.645,0.987
			c-4.438,0.422-8.846,0.845-13.292,1.383c0.056-0.001,0.117,0,0.172-0.001l-0.46,0.033c0.096-0.012,0.191-0.02,0.287-0.032
			c-1.859,0.032-3.95-0.011-5.931-0.109c-2.069-0.104-4.133-0.268-6.184-0.468c-2.052-0.2-4.086-0.478-6.086-0.833l-1.489-0.273
			l-1.417-0.292c-0.449-0.078-1.019-0.233-1.534-0.353l-0.79-0.192l-0.198-0.048l-0.099-0.024l-0.025-0.006
			c-0.086-0.023,0.09,0.026,0.058,0.018l-0.07-0.016l-0.558-0.121l-1.118-0.224l-0.978-0.114l-0.972-0.104l-0.91-0.049
			c-1.232-0.083-2.371-0.069-3.537-0.079c-2.289,0.039-4.532,0.156-6.746,0.321c-4.434,0.305-8.793,0.829-13.137,1.382
			c-4.338,0.593-8.657,1.225-12.955,1.969c-2.15,0.369-4.298,0.728-6.44,1.137c-2.142,0.405-4.284,0.797-6.418,1.233
			c-4.271,0.863-8.533,1.755-12.776,2.761c-4.245,0.988-8.48,2.017-12.686,3.203c4.248-0.903,8.509-1.748,12.78-2.533
			c4.268-0.802,8.551-1.513,12.835-2.236c4.287-0.699,8.584-1.336,12.886-1.956c4.302-0.633,8.621-1.138,12.948-1.631
			c4.33-0.475,8.671-0.919,13.055-1.145c2.19-0.127,4.395-0.198,6.623-0.208c2.256,0.036,4.451,0.039,6.988,0.563l0.478,0.103
			c0.069,0.011,0.246,0.06,0.363,0.088l0.788,0.199c0.52,0.127,1.065,0.281,1.555,0.374c0.998,0.212,1.998,0.443,3.042,0.625
			c2.064,0.386,4.153,0.692,6.256,0.918c2.102,0.232,4.215,0.403,6.333,0.507c2.077,0.102,4.213,0.147,6.224,0.11
			c4.462-0.542,8.911-0.968,13.374-1.392c4.513-0.417,9.03-0.799,13.568-1.091c2.271-0.125,4.546-0.231,6.832-0.297
			c2.295-0.048,4.573-0.109,6.937,0.007c2.325,0.097,4.585,0.314,6.835,0.492l6.745,0.621c4.491,0.42,8.981,0.794,13.47,1.163
			c0.549,0.047,1.098,0.084,1.647,0.129v-1.63c-0.519-0.056-1.038-0.109-1.557-0.166L435.045,342.155z"/>
		<path id="XMLID_112_" style="fill:#513023;" d="M448.196,348.634c-2.265-0.047-4.526-0.151-6.787-0.239l-6.779-0.305l-6.766-0.334
			c-2.254-0.118-4.496-0.272-6.685-0.303c-2.149-0.05-4.388,0.066-6.603,0.172c-2.224,0.123-4.457,0.287-6.69,0.47
			c-4.47,0.337-8.948,0.748-13.423,1.204c-4.473,0.446-8.954,0.977-13.41,1.473l-0.142,0.016l-0.088,0.001
			c-2.301,0.024-4.472-0.047-6.698-0.173c-2.212-0.128-4.42-0.326-6.626-0.589c-2.205-0.257-4.407-0.598-6.6-1.028
			c-1.089-0.206-2.204-0.45-3.318-0.73c-0.571-0.129-1.066-0.285-1.595-0.429l-0.783-0.22l-0.424-0.116l-0.316-0.072
			c-1.701-0.41-3.871-0.53-5.941-0.602c-2.108-0.045-4.238-0.035-6.38,0.033c-2.14,0.056-4.287,0.173-6.437,0.264
			c-2.151,0.107-4.304,0.234-6.458,0.376c-4.309,0.277-8.615,0.666-12.931,0.999c-4.314,0.346-8.626,0.75-12.941,1.144
			l-25.917,2.387c4.367-0.115,8.715-0.315,13.059-0.523c4.346-0.185,8.679-0.439,13.01-0.669l12.97-0.73l6.469-0.349l6.455-0.311
			c2.147-0.102,4.292-0.191,6.43-0.258c2.137-0.051,4.269-0.129,6.383-0.145c2.117-0.03,4.21,0.006,6.256,0.08
			c1,0.055,2.031,0.088,2.959,0.198l0.711,0.068l0.64,0.102l0.634,0.098l0.469,0.127l0.236,0.055l0.454,0.128l0.781,0.227
			c0.534,0.15,1.004,0.305,1.617,0.45c1.173,0.306,2.343,0.57,3.454,0.791c2.257,0.462,4.514,0.831,6.77,1.113
			c2.256,0.296,4.514,0.501,6.775,0.628c2.288,0.128,4.463,0.203,6.898,0.176l0.176-0.002l0.284-0.031
			c4.426-0.492,8.903-1.024,13.356-1.468l6.68-0.692l6.666-0.616c2.215-0.201,4.427-0.385,6.62-0.527
			c1.088-0.057,2.198-0.145,3.264-0.17l1.613-0.068l1.557-0.02c2.12-0.012,4.354,0.1,6.61,0.178l6.775,0.213
			c2.262,0.075,4.53,0.126,6.8,0.156c2.27,0.029,4.54,0.074,6.814,0.061c0.638,0.001,1.278-0.016,1.917-0.019v-1.616
			C449.414,348.653,448.804,348.649,448.196,348.634z"/>
		<path id="XMLID_113_" style="fill:#513023;" d="M380.626,343.312c-0.056,0.001-0.116,0.001-0.172,0.001
			c-0.096,0.012-0.191,0.02-0.287,0.032L380.626,343.312z"/>
		<path id="XMLID_114_" style="fill:#35211D;" d="M380.692,345.811c-0.025,0-0.053-0.001-0.078,0c-0.05,0.006-0.1,0.011-0.151,0.017
			L380.692,345.811z"/>
		<path id="XMLID_115_" style="fill:#35211D;" d="M316.317,348.501c4.316-0.332,8.622-0.721,12.931-0.999
			c2.154-0.142,4.307-0.27,6.458-0.376c2.15-0.091,4.297-0.208,6.437-0.264c2.141-0.068,4.272-0.078,6.38-0.033
			c2.07,0.072,4.24,0.193,5.941,0.602l0.316,0.072l0.424,0.116l0.783,0.22c0.529,0.144,1.024,0.299,1.595,0.429
			c1.113,0.28,2.229,0.524,3.318,0.73c2.194,0.43,4.395,0.771,6.6,1.028c2.205,0.263,4.414,0.461,6.626,0.589
			c2.226,0.126,4.397,0.197,6.698,0.173l0.088-0.001l0.142-0.016c4.457-0.496,8.937-1.027,13.41-1.473
			c4.475-0.456,8.953-0.867,13.423-1.204c2.233-0.182,4.466-0.347,6.69-0.47c2.216-0.107,4.454-0.222,6.603-0.172
			c2.189,0.031,4.431,0.185,6.685,0.303l6.766,0.334l6.779,0.305c2.261,0.088,4.522,0.193,6.787,0.239
			c0.609,0.015,1.218,0.019,1.827,0.031v-3.224c-0.549-0.045-1.098-0.082-1.647-0.129c-4.489-0.369-8.979-0.743-13.47-1.163
			l-6.745-0.621c-2.251-0.178-4.511-0.395-6.835-0.492c-2.364-0.115-4.642-0.055-6.937-0.007c-2.287,0.065-4.561,0.172-6.832,0.297
			c-4.538,0.291-9.056,0.674-13.568,1.091c-4.464,0.425-8.913,0.851-13.374,1.392c0.026,0,0.053,0.001,0.078,0l-0.229,0.017
			c0.05-0.006,0.1-0.011,0.151-0.017c-2.012,0.037-4.147-0.009-6.224-0.11c-2.117-0.104-4.231-0.275-6.333-0.507
			c-2.103-0.226-4.192-0.532-6.256-0.918c-1.044-0.182-2.044-0.413-3.042-0.625c-0.49-0.093-1.035-0.247-1.555-0.374l-0.788-0.199
			c-0.118-0.028-0.294-0.077-0.363-0.088l-0.478-0.103c-2.538-0.524-4.732-0.527-6.988-0.563c-2.228,0.011-4.433,0.081-6.623,0.208
			c-4.384,0.226-8.724,0.671-13.055,1.145c-4.328,0.492-8.647,0.998-12.948,1.631c-4.303,0.62-8.6,1.256-12.886,1.956
			c-4.284,0.723-8.566,1.434-12.835,2.236c-4.271,0.785-8.531,1.629-12.78,2.533l25.917-2.387
			C307.691,349.251,312.002,348.847,316.317,348.501z"/>
		<path id="XMLID_126_" style="fill:#513023;" d="M3.699,323.226l0.938,0.162c0.31,0.053,0.572,0.138,0.862,0.203l0.852,0.203
			l0.432,0.102l0.504,0.175l1.008,0.349l0.504,0.175l0.252,0.087l0.063,0.022l0.031,0.011c0.036,0.014-0.261-0.104-0.127-0.051
			l0.018,0.006l0.145,0.049l2.329,0.749c0.777,0.249,1.534,0.35,2.301,0.528l1.146,0.237c0.379,0.065,0.756,0.096,1.134,0.145
			l2.262,0.263l2.236,0.129c1.495,0.101,2.96,0.024,4.435,0.043c1.464-0.067,2.928-0.123,4.378-0.245
			c1.451-0.125,2.897-0.268,4.333-0.457c2.875-0.371,5.72-0.864,8.538-1.482c1.41-0.294,2.808-0.667,4.202-1.02
			c1.393-0.367,2.778-0.776,4.145-1.241l-8.585-0.16l-4.253-0.104c-1.414-0.056-2.823-0.076-4.227-0.162
			c-1.405-0.038-2.803-0.142-4.196-0.225c-1.394-0.069-2.774-0.224-4.153-0.328c-1.362-0.174-2.748-0.256-4.078-0.502l-2.009-0.293
			l-1.951-0.406l-0.969-0.203l-0.929-0.259c-0.606-0.186-1.264-0.309-1.826-0.54l-3.808-1.481l-0.497-0.194l-0.596-0.181
			l-1.206-0.355c-0.399-0.11-0.815-0.246-1.203-0.331l-1.159-0.23c-0.773-0.157-1.548-0.3-2.324-0.374
			c-0.776-0.086-1.554-0.207-2.328-0.23c-0.108-0.008-0.216-0.005-0.324-0.012v2.061c0.501,0.046,1.002,0.107,1.502,0.162
			c0.738,0.068,1.469,0.204,2.198,0.352c0.729,0.132,1.459,0.275,2.2,0.503c0.717,0.216,1.523,0.383,2.154,0.653l3.928,1.456
			c0.623,0.238,1.309,0.356,1.961,0.542l0.99,0.256c0.335,0.072,0.678,0.123,1.017,0.185l2.041,0.36l2.075,0.24
			c1.377,0.208,2.785,0.248,4.18,0.382c1.403,0.056,2.808,0.143,4.217,0.155c1.41,0.022,2.821,0.063,4.235,0.038
			c1.414,0.008,2.828-0.052,4.245-0.077c1.416-0.044,2.835-0.083,4.251-0.163c2.836-0.134,5.675-0.305,8.517-0.534
			c-2.78,0.636-5.59,1.148-8.415,1.567c-2.826,0.413-5.665,0.768-8.522,0.976c-1.427,0.127-2.859,0.206-4.293,0.27
			c-1.434,0.065-2.874,0.053-4.313,0.072c-1.443-0.06-2.885-0.024-4.333-0.163l-2.171-0.182l-2.172-0.31
			c-0.362-0.055-0.725-0.098-1.087-0.163l-1.084-0.241c-0.721-0.179-1.45-0.284-2.166-0.526l-2.15-0.719l-1.954-0.703
			c-0.684-0.28-1.289-0.366-1.933-0.557c-0.622-0.187-1.288-0.31-1.961-0.423c-0.666-0.129-1.334-0.247-2.015-0.301
			c-0.382-0.037-0.762-0.082-1.144-0.119v1.943c0.611,0.015,1.208,0.101,1.81,0.158C2.452,322.995,3.077,323.106,3.699,323.226z"/>
		<path id="XMLID_127_" style="fill:#35211D;" d="M1.144,320.964c0.681,0.054,1.349,0.172,2.015,0.301
			c0.672,0.114,1.339,0.236,1.961,0.423c0.644,0.192,1.249,0.277,1.933,0.557l1.954,0.703l2.15,0.719
			c0.716,0.242,1.445,0.347,2.166,0.526l1.084,0.241c0.362,0.065,0.725,0.108,1.087,0.163l2.172,0.31l2.171,0.182
			c1.448,0.139,2.891,0.104,4.333,0.163c1.44-0.019,2.88-0.008,4.313-0.072c1.434-0.064,2.866-0.144,4.293-0.27
			c2.857-0.207,5.696-0.563,8.522-0.976c2.825-0.418,5.635-0.931,8.415-1.567c-2.842,0.229-5.681,0.4-8.517,0.534
			c-1.417,0.08-2.835,0.119-4.251,0.163c-1.417,0.025-2.831,0.085-4.245,0.077c-1.414,0.025-2.826-0.016-4.235-0.038
			c-1.41-0.012-2.814-0.098-4.217-0.155c-1.394-0.134-2.803-0.173-4.18-0.382l-2.075-0.24l-2.041-0.36
			c-0.339-0.063-0.682-0.114-1.017-0.185l-0.99-0.256c-0.652-0.186-1.338-0.304-1.961-0.542l-3.928-1.456
			c-0.632-0.27-1.437-0.436-2.154-0.653c-0.741-0.227-1.471-0.37-2.2-0.503c-0.73-0.148-1.46-0.284-2.198-0.352
			c-0.501-0.055-1.001-0.116-1.502-0.162v2.986C0.381,320.883,0.762,320.927,1.144,320.964z"/>
	</g>
	<g>
		<g id="XMLID_30_">
			<polygon id="XMLID_31_" style="fill:#7C492D;" points="0.004,64.032 42.673,65.576 171.665,64.098 260.348,65.576 
				345.022,66.561 450.027,64.032 450.027,0 0.004,0 			"/>
			<g id="XMLID_33_">
				<path id="XMLID_284_" style="fill:#583524;" d="M198.783,36.992c7.253-1.534,14.834-2.077,22.228-1.715
					c15.504,0.761,41.277-2.809,56.776-3.996c15.026-1.151,62.107-7.487,74.337-8.734c12.789-1.304,58.487-9.272,71.516-10.246
					c8.952-0.669,17.593-3.225,26.388-4.847V0h-8.456c-10.287,1.646-23.513,3.375-29.444,3.735
					c-16.295,0.99-30.886,5.647-47.133,7.334c-15.298,1.589-30.751,2.393-45.76,5.997c-15.107,3.628-36.896,5.414-52.448,7.496
					c-15.351,2.055-64.523,3.028-76.788,5.999c-21.687,5.254-23.736,18.87-14.883,28.938c1.362,1.549,2.976,3.136,4.782,4.736
					l11.622,0.194C184.426,58.597,173.747,42.286,198.783,36.992z"/>
				<path id="XMLID_285_" style="fill:#6C4029;" d="M362.874,25.834c-7.653,2.076-39.003,6.321-46.965,6.3
					c-15.23-0.041-115.781,9.552-119.792,15.944c-2.578,4.107,2.561,10.7,8.607,16.571l16.239,0.271
					c-6.244-4.081-12.952-9.145-14.178-12.356c-1.568-4.105,79.156-13.282,90.222-14.533c10.604-1.199,21.234-0.672,31.875-0.989
					c21.385-0.637,64.695-8.36,85.913-9.791c19.344-1.305,20.168-4.06,35.233-4.724v-4.94c-13.719,0.896-27.075,4.046-40.9,4.962
					C393.486,23.583,378.068,21.713,362.874,25.834z"/>
				<path id="XMLID_286_" style="fill:#6C4029;" d="M357.203,57.434c-13.172,2.502-23.915,5.803-34.306,8.87l22.125,0.257
					l6.011-0.145c11.161-2.6,26.18-4.58,43.921-1.058l26.221-0.632c-3.724-1.866-7.512-3.61-11.47-5.061
					C396.727,54.909,370.603,54.888,357.203,57.434z"/>
				<path id="XMLID_287_" style="fill:#8C5636;" d="M446.128,29.938c-7.843,1.375-17.359,6.811-25.28,6.922
					c-16.14,0.228-32.27,1.665-48.415,2.066c-31.164,0.775-53.822,6.014-84.98,6.129c-9.715,0.036-38.666,2.41-47.336,8.189
					c-7.015,4.676-14.689,8.101-8.182,11.86l28.411,0.474l50.933,0.592c2.533-0.848,5.045-1.761,7.531-2.735
					c8.279-3.241,16.082-7.584,24.643-10.053c8.547-2.465,17.48-3.499,26.254-4.787c8.899-1.306,19.129,5.348,28.083,4.648
					c9.089-0.71,25.5,3.96,33.335,8.272c1.917,1.055,3.709,2.012,5.426,2.841l13.473-0.325v-7.908
					c-5.571,0.083-11.566-1.219-16.187-1.868c-13.876-1.947-40.349-10.35-68.674-7.186c-8.441,0.943-19.04-0.508-26.871,2.904
					c-4.326,1.885-33.122,13.656-41.193,14.816c-16.06,2.308-30.293-3.094-46.063-3.704c-9.888-0.383,3.452-6.278,9.392-7.372
					c6.268-1.155,12.512-1.605,18.992-1.605c12.298,0,59.43-6.374,65.617-7.81c16.328-3.791,41.292-3.823,57.378-0.882
					c11.143,2.037,32.497-0.89,43.502-2.919c1.355-0.25,2.745-0.519,4.107-0.689V29.611
					C448.826,29.611,447.547,29.689,446.128,29.938z"/>
				<path id="XMLID_288_" style="fill:#603823;" d="M28.774,20.868c16.183-0.221,73.142-7.544,89.296-8.398
					c32.141-1.699,36.806,0.509,68.78,4.46c15.5,1.915,20.955,8.098,36.6,7.97c7.686-0.063,25.314-5.338,32.959-5.987
					c8.42-0.715,16.874-0.989,25.307-1.521c31.736-2.003,63.337-9.032,94.704-14.053c8.257-1.322,20.077-2.384,31.603-3.338h-42.453
					c-27.211,4.327-42.121,6.416-72.117,8.102C277.471,9,243.861,15.797,227.85,15.587c-15.603-0.204-35.603-6.284-51.069-8.157
					c-31.933-3.868-47.948-1.413-80.004,0.443c-14.858,0.86-41.429,4.762-56.321,4.966c-13.546,0.185-26.955-1.577-40.452-2.085
					v5.211C11.142,17.105,14.806,21.058,28.774,20.868z"/>
				<path id="XMLID_289_" style="fill:#8C5636;" d="M199.531,1.001c7.415,0.743,53.671,7.385,66.598,6.719
					c18.5-0.954,36.1-4.192,53.764-7.719h-46.696c-8.807,0.847-17.71,1.136-26.289,0.485c-1.862-0.141-3.801-0.305-5.796-0.485
					h-63.677C185.018,0.234,194.309,0.477,199.531,1.001z"/>
				<path id="XMLID_290_" style="fill:#8C5636;" d="M85.444,5.332C105.629,3.983,118.6,1.287,135.191,0h-44.44
					C68.22,2.787,49.831,1.944,34.814,0H5.453c7.917,2.297,15.135,5.516,24.736,6.935C45.419,9.185,70.112,6.355,85.444,5.332z"/>
				<path id="XMLID_291_" style="fill:#77452B;" d="M445.92,40.498c-11.005,2.029-32.359,4.957-43.502,2.919
					c-16.086-2.941-41.05-2.909-57.378,0.882c-6.187,1.436-53.319,7.81-65.617,7.81c-6.48,0-12.724,0.45-18.992,1.605
					c-5.94,1.094-19.281,6.989-9.392,7.372c15.769,0.61,30.003,6.012,46.063,3.704c8.071-1.16,36.868-12.931,41.193-14.816
					c7.832-3.412,18.431-1.961,26.871-2.904c28.325-3.163,54.798,5.239,68.674,7.186c4.621,0.649,10.616,1.95,16.187,1.868V39.809
					C448.665,39.979,447.275,40.248,445.92,40.498z"/>
				<path id="XMLID_292_" style="fill:#8C5636;" d="M64.344,40.764c-12.737-1.7-48.65-3.394-64.34-3.353v5.103
					c5.625,0.151,11.218,0.895,16.844,1.215c8.464,0.482,67.223,7.636,82.929,12.96c8.82,2.99,16.798,5.525,24.423,7.952
					l21.602-0.247c-4.801-2.04-9.678-4.119-14.69-6.239C110.111,49.274,92.478,44.52,64.344,40.764z"/>
				<path id="XMLID_293_" style="fill:#6C4029;" d="M0.004,48.268v5.378c17.539,2.067,50.716,8.073,71.354,11.601l32.663-0.374
					C58.697,52.65,41.191,54.461,35.441,53.243C24.632,50.953,11.815,49.063,0.004,48.268z"/>
				<path id="XMLID_296_" style="fill:#6C4029;" d="M164.813,41.891c0.838-5.754,26.259-16.167,24.196-18.672
					c-7.862-9.546-61.506-6.356-69.198-4.843c-7.888,1.551-38.567,3.212-46.034,3.163c-12.754-0.083-23.7,3.166-36.366,4.296
					c-12.449,1.111-24.96,0.817-37.406,2.107v5.812c0.154,0.028,0.316,0.047,0.489,0.047c16.494,0.014,32.984,0.357,49.476,0.556
					c15.286,0.184,30.387-0.339,45.356,3.326c12.381,3.032,23.485,8.552,34.471,14.845c3.857,2.209,13.187,8.043,22.007,11.799
					l17.886-0.205C168.584,60.306,163.652,49.867,164.813,41.891z M154.447,50.666c-4.277,13.818-13.909-3.589-21.448-7.627
					C121.461,36.857,98.5,32.573,85.611,30.657c-10.843-1.612-17.47-5.898,4.5-4.079c6.782,0.562,11.792,1.788,18.668,2.089
					c7.338,0.321,36.83-2.137,44.569-2.994c26.466-2.93,8.013,7.531,6.416,8.555C155.025,37.266,156.078,45.396,154.447,50.666z"/>
				<path id="XMLID_297_" style="fill:#8C5636;" d="M144.662,30.07c-3.021,0.695-5.903,1.883-8.881,2.728
					c-1.067,0.303-2.235,0.511-3.457,0.642c-11.447,0.192,1.46,6.128,2.701,7.181c3.025,2.567,5.642,6.324,9.475,7.767
					c8.139,3.063,3.858-7.498,8.279-11.732C160.114,29.632,149.564,28.942,144.662,30.07z"/>
			</g>
		</g>
		<path id="XMLID_117_" style="fill:#513023;" d="M439.971,44.989c-2.318,0.046-4.613,0.134-6.902,0.239
			c-4.572,0.259-9.114,0.583-13.645,0.987c-4.438,0.422-8.846,0.845-13.291,1.382c0.056-0.001,0.116,0,0.172-0.001l-0.46,0.033
			c0.096-0.012,0.191-0.02,0.288-0.032c-1.859,0.032-3.95-0.011-5.931-0.109c-2.069-0.104-4.133-0.268-6.184-0.468
			c-2.052-0.201-4.086-0.479-6.086-0.833l-1.489-0.273l-1.417-0.292c-0.449-0.078-1.019-0.233-1.534-0.353l-0.79-0.192l-0.198-0.048
			l-0.099-0.024l-0.025-0.006c-0.086-0.024,0.09,0.026,0.058,0.017l-0.07-0.015l-0.558-0.121l-1.118-0.225l-0.978-0.114
			l-0.972-0.104l-0.91-0.049c-1.232-0.083-2.371-0.069-3.537-0.079c-2.289,0.039-4.532,0.156-6.746,0.321
			c-4.434,0.305-8.793,0.829-13.136,1.382c-4.339,0.593-8.657,1.225-12.956,1.969c-2.149,0.369-4.298,0.728-6.439,1.137
			c-2.142,0.405-4.284,0.797-6.418,1.233c-4.271,0.863-8.533,1.755-12.776,2.761c-4.245,0.988-8.48,2.017-12.686,3.203
			c4.248-0.903,8.509-1.748,12.779-2.533c4.269-0.802,8.551-1.513,12.835-2.236c4.287-0.699,8.584-1.335,12.886-1.956
			c4.301-0.633,8.621-1.138,12.948-1.631c4.33-0.475,8.671-0.919,13.055-1.145c2.19-0.127,4.395-0.198,6.623-0.208
			c2.256,0.036,4.451,0.039,6.988,0.563l0.477,0.103c0.07,0.011,0.246,0.06,0.363,0.088l0.788,0.199
			c0.52,0.127,1.065,0.281,1.555,0.374c0.998,0.212,1.998,0.443,3.042,0.625c2.064,0.386,4.153,0.692,6.256,0.918
			c2.102,0.232,4.215,0.403,6.333,0.507c2.077,0.102,4.213,0.147,6.225,0.111c4.462-0.542,8.911-0.968,13.374-1.392
			c4.513-0.417,9.031-0.8,13.568-1.091c2.271-0.125,4.546-0.231,6.832-0.297c2.295-0.048,4.573-0.109,6.937,0.007
			c1.018,0.042,2.021,0.113,3.019,0.189v-2.196c-0.968-0.089-1.941-0.176-2.945-0.234C444.604,44.915,442.306,44.958,439.971,44.989
			z"/>
		<path id="XMLID_118_" style="fill:#513023;" d="M446.858,51.737c-2.149-0.05-4.388,0.066-6.603,0.172
			c-2.224,0.123-4.457,0.287-6.69,0.469c-4.47,0.337-8.948,0.749-13.423,1.204c-4.473,0.446-8.954,0.977-13.41,1.473l-0.142,0.016
			l-0.088,0.001c-2.301,0.025-4.472-0.047-6.698-0.173c-2.212-0.128-4.42-0.326-6.625-0.589c-2.205-0.257-4.407-0.598-6.6-1.028
			c-1.089-0.206-2.204-0.45-3.318-0.73c-0.571-0.129-1.066-0.285-1.595-0.429l-0.783-0.22l-0.424-0.116l-0.316-0.072
			c-1.701-0.41-3.871-0.529-5.941-0.602c-2.108-0.045-4.238-0.035-6.38,0.033c-2.14,0.056-4.287,0.173-6.437,0.264
			c-2.151,0.106-4.304,0.234-6.458,0.376c-4.309,0.278-8.615,0.666-12.931,0.999c-4.314,0.346-8.626,0.75-12.941,1.144
			l-25.917,2.387c4.367-0.115,8.715-0.315,13.059-0.523c4.346-0.185,8.679-0.439,13.01-0.669l12.97-0.73l6.469-0.349l6.455-0.311
			c2.147-0.103,4.292-0.191,6.43-0.258c2.137-0.051,4.269-0.129,6.383-0.145c2.117-0.03,4.21,0.006,6.257,0.08
			c1,0.055,2.031,0.088,2.959,0.198l0.711,0.068l0.64,0.102l0.633,0.098l0.469,0.127l0.236,0.055l0.454,0.128l0.781,0.227
			c0.534,0.15,1.004,0.305,1.617,0.45c1.173,0.306,2.343,0.57,3.454,0.791c2.257,0.462,4.514,0.831,6.77,1.113
			c2.256,0.296,4.514,0.501,6.775,0.628c2.288,0.128,4.463,0.202,6.898,0.176l0.176-0.002l0.284-0.032
			c4.426-0.492,8.903-1.024,13.357-1.468l6.68-0.692l6.666-0.616c2.215-0.201,4.427-0.385,6.62-0.527
			c1.088-0.057,2.198-0.145,3.264-0.17l1.613-0.068l1.557-0.02c1.055-0.006,2.138,0.019,3.238,0.055V51.85
			C448.959,51.797,447.902,51.751,446.858,51.737z"/>
		<path id="XMLID_119_" style="fill:#35211D;" d="M447.004,47.322c-2.364-0.115-4.642-0.055-6.937-0.007
			c-2.287,0.065-4.561,0.172-6.832,0.297c-4.538,0.291-9.056,0.674-13.568,1.091c-4.464,0.425-8.912,0.851-13.374,1.392
			c0.026,0,0.053,0,0.079,0l-0.229,0.017c0.05-0.006,0.1-0.011,0.151-0.017c-2.012,0.037-4.148-0.009-6.225-0.111
			c-2.117-0.104-4.231-0.274-6.333-0.507c-2.103-0.226-4.192-0.532-6.256-0.918c-1.044-0.182-2.044-0.413-3.042-0.625
			c-0.49-0.093-1.035-0.247-1.555-0.374l-0.788-0.199c-0.118-0.028-0.294-0.077-0.363-0.088l-0.477-0.103
			c-2.538-0.524-4.732-0.527-6.988-0.563c-2.228,0.011-4.433,0.081-6.623,0.208c-4.384,0.226-8.724,0.67-13.055,1.145
			c-4.328,0.493-8.647,0.998-12.948,1.631c-4.303,0.62-8.6,1.257-12.886,1.956c-4.284,0.723-8.566,1.434-12.835,2.236
			c-4.271,0.785-8.531,1.63-12.779,2.533l25.917-2.387c4.315-0.394,8.627-0.798,12.941-1.144c4.316-0.333,8.622-0.721,12.931-0.999
			c2.154-0.142,4.307-0.269,6.458-0.376c2.15-0.091,4.297-0.208,6.437-0.264c2.141-0.068,4.272-0.078,6.38-0.033
			c2.07,0.073,4.24,0.193,5.941,0.602l0.316,0.072l0.424,0.116l0.783,0.22c0.529,0.144,1.024,0.3,1.595,0.429
			c1.113,0.281,2.229,0.524,3.318,0.73c2.194,0.43,4.395,0.771,6.6,1.028c2.205,0.263,4.414,0.461,6.625,0.589
			c2.226,0.126,4.397,0.197,6.698,0.173l0.088-0.001l0.142-0.016c4.457-0.496,8.937-1.027,13.41-1.473
			c4.475-0.455,8.953-0.867,13.423-1.204c2.233-0.182,4.466-0.347,6.69-0.469c2.216-0.107,4.454-0.222,6.603-0.172
			c1.044,0.015,2.101,0.06,3.164,0.114v-4.339C449.024,47.436,448.022,47.364,447.004,47.322z"/>
		<path id="XMLID_128_" style="fill:#513023;" d="M5.319,37.895c1.893,0.084,3.899,0.43,5.96,0.927
			c1.032,0.239,2.078,0.518,3.131,0.843c1.159,0.348,2.327,0.699,3.502,1.053c1.128,0.347,2.454,0.655,3.758,0.967
			c0.648,0.151,1.311,0.323,1.952,0.456l1.916,0.379c5.117,1.027,10.335,1.615,15.528,2.018c5.199,0.363,10.379,0.483,15.46,0.393
			c5.081-0.071,10.06-0.335,14.859-0.716c4.797-0.407,9.415-0.9,13.774-1.5c4.361-0.572,8.461-1.258,12.233-1.933
			c3.771-0.683,7.211-1.392,10.248-2.067c3.034-0.704,5.669-1.343,7.833-1.893c2.16-0.576,3.849-1.057,4.998-1.387
			c1.145-0.353,1.755-0.541,1.755-0.541s-2.465,0.608-6.815,1.53c-2.178,0.444-4.828,0.955-7.875,1.51
			c-3.05,0.533-6.5,1.092-10.274,1.649c-3.775,0.545-7.877,1.058-12.227,1.527c-4.349,0.487-8.953,0.835-13.725,1.139
			c-4.772,0.292-9.718,0.467-14.752,0.447c-5.033-0.013-10.158-0.137-15.281-0.552c-5.12-0.435-10.239-1.09-15.246-2.074
			c-1.25-0.239-2.497-0.49-3.754-0.809c-1.253-0.299-2.516-0.589-3.665-0.942c-1.173-0.352-2.338-0.703-3.496-1.051
			c-1.104-0.34-2.206-0.633-3.301-0.886c-2.19-0.509-4.361-0.825-6.45-0.88C3.491,35.407,1.685,35.553,0,35.929v2.321
			c0.021-0.005,0.041-0.012,0.062-0.016C1.654,37.885,3.422,37.751,5.319,37.895z"/>
		<path id="XMLID_129_" style="fill:#513023;" d="M5.46,30.715c2.485,0.027,4.965,0.355,7.41,0.88
			c1.224,0.261,2.442,0.566,3.651,0.916c1.157,0.334,2.322,0.671,3.494,1.01c1.187,0.375,2.321,0.639,3.47,0.924
			c1.137,0.302,2.323,0.551,3.521,0.791c4.775,0.983,9.718,1.664,14.693,2.132c4.972,0.5,9.983,0.787,14.925,0.925
			c4.942,0.122,9.818,0.149,14.541,0.092c4.724-0.068,9.29-0.276,13.626-0.452c4.336-0.185,8.432-0.471,12.215-0.735
			c3.785-0.254,7.253-0.538,10.324-0.823c3.075-0.259,5.755-0.512,7.96-0.745c4.417-0.421,6.937-0.735,6.937-0.735
			s-2.545,0.123-6.997,0.338c-2.219,0.127-4.914,0.251-8.003,0.362c-3.081,0.12-6.558,0.256-10.35,0.405
			c-3.786,0.134-7.884,0.246-12.209,0.329c-4.326,0.062-8.878,0.126-13.577,0.09c-4.697-0.031-9.539-0.148-14.434-0.361
			c-4.894-0.24-9.849-0.531-14.746-1.084c-4.901-0.501-9.745-1.248-14.41-2.188l-1.744-0.361c-0.574-0.124-1.109-0.272-1.664-0.405
			c-1.098-0.273-2.17-0.518-3.377-0.899c-1.17-0.338-2.333-0.674-3.488-1.008c-1.258-0.365-2.534-0.684-3.821-0.959
			c-2.575-0.538-5.22-0.835-7.901-0.833C3.676,28.342,1.821,28.539,0,28.931v2.354C1.782,30.891,3.622,30.709,5.46,30.715z"/>
		<path id="XMLID_130_" style="fill:#35211D;" d="M107.331,36.374c-3.072,0.285-6.54,0.569-10.324,0.823
			c-3.783,0.265-7.879,0.55-12.215,0.735c-4.336,0.175-8.902,0.384-13.626,0.452c-4.723,0.057-9.599,0.03-14.541-0.092
			c-4.942-0.138-9.952-0.425-14.925-0.925c-4.974-0.468-9.917-1.148-14.693-2.132c-1.199-0.24-2.384-0.49-3.521-0.791
			c-1.149-0.285-2.284-0.549-3.47-0.924c-1.172-0.339-2.338-0.675-3.494-1.01c-1.208-0.35-2.427-0.654-3.651-0.916
			c-2.445-0.525-4.926-0.853-7.41-0.88c-1.837-0.006-3.678,0.177-5.46,0.57v4.644c1.685-0.376,3.491-0.522,5.366-0.428
			c2.09,0.055,4.26,0.371,6.45,0.88c1.095,0.253,2.198,0.547,3.301,0.886c1.157,0.348,2.323,0.698,3.496,1.051
			c1.149,0.353,2.412,0.643,3.665,0.942c1.257,0.32,2.504,0.57,3.754,0.809c5.007,0.984,10.126,1.639,15.246,2.074
			c5.123,0.416,10.248,0.54,15.281,0.552c5.034,0.02,9.979-0.155,14.752-0.447c4.772-0.303,9.376-0.652,13.725-1.139
			c4.35-0.469,8.452-0.982,12.227-1.527c3.774-0.557,7.224-1.116,10.274-1.649c3.048-0.556,5.698-1.066,7.875-1.51
			c4.35-0.922,6.815-1.53,6.815-1.53s-2.52,0.314-6.937,0.735C113.086,35.861,110.406,36.114,107.331,36.374z"/>
	</g>
	<g id="XMLID_22_">
		<rect id="XMLID_25_" x="271.81" y="76.191" style="fill:#3A2219;" width="10.91" height="65.579"/>
		<rect id="XMLID_24_" x="282.09" y="76.191" style="fill:#AA6B52;" width="4.479" height="65.579"/>
		<rect id="XMLID_23_" x="280.032" y="76.191" style="fill:#190E0B;" width="2.132" height="65.579"/>
	</g>
	<g>
		<polygon style="fill:#7C492D;" points="284.457,141.961 350.205,140.323 450.027,140.983 450.027,76.96 395.707,78.848 
			315.953,75.068 284.457,76.345 		"/>
		<g>
			<path style="fill:#583524;" d="M444.605,140.947l5.422,0.036v-5.136C447.668,137.545,445.915,139.245,444.605,140.947z"/>
			<path style="fill:#8C5636;" d="M380.244,93.558c-14.704,3.306-29.99,10.091-43.433,2.438
				c-9.233-5.256-17.586-14.175-26.465-20.701l-14.559,0.59c13.228,8.202,26.006,18.702,39.774,25.149
				c17.875,8.37,47.838-0.62,65.933-6.041c18.265-5.472,30.857-8.83,48.533-9.111v-5.182c-10.199-0.036-20.54,0.723-30.211,2.817
				C405.899,86.532,394.123,90.438,380.244,93.558z"/>
			<path style="fill:#8C5636;" d="M389.044,132.203c-7.475,3.026-14.84,5.543-22.164,8.23l27.73,0.184
				c3.321-1.483,6.883-2.828,11.041-4.046c7.579-2.22,26.68-6.402,44.375-9.865v-8.112c-2.962,0.467-6.082,0.857-9.518,1.099
				C425.783,120.727,402.883,126.601,389.044,132.203z"/>
			<path style="fill:#603823;" d="M326.747,138.493c-1.965,0.915-3.944,1.764-5.933,2.562l28.253-0.704
				c29.652-10.379,67.911-23.14,100.96-28.541v-5.129c-18.019,2.35-79.205,15.035-92.399,20.382
				C344.596,132.344,339.48,132.559,326.747,138.493z"/>
			<path style="fill:#603823;" d="M315.141,105.996c3.329,1.719,6.479,3.773,9.817,5.47c7.066,3.592,14.398,4.548,22.281,3.921
				c17.016-1.353,37.282-3.912,53.945-7.492c16.041-3.445,28.806-8.119,45.208-8.816c1.063-0.045,2.298-0.076,3.636-0.09v-7.906
				c-1.327-0.074-2.617-0.101-3.841-0.049c-15.524,0.66-28.83,5.221-44.049,8.41c-14.935,3.13-29.833,7.019-44.865,9.613
				c-7.61,1.313-17.112,2.887-24.641,0.281c-6.053-2.095-11.111-6.145-16.985-8.622c-7.637-3.222-15.784-5.265-23.186-9.054
				c-2.685-1.375-5.334-2.82-8.002-4.228v5.693c5.305,2.727,10.648,5.367,16.281,7.413
				C305.511,102.274,310.617,103.659,315.141,105.996z"/>
			<path style="fill:#6C4029;" d="M296.309,140.227c0.695-0.158,15.341-3.69,23.694-5.628c5.627-1.306,23.781-5.286,27.809-9.88
				c4.317-4.925-9.461-4.051-14.251-5.795c-7.99-2.91-41.531-13.819-49.003-16.125c-0.031-0.01-0.069-0.026-0.101-0.037v8.863
				c3.429,1.739,6.958,2.967,10.602,3.267c9.091,0.748,43.754,6.201,36.464,10.411c-5.919,3.418-13.221,4.685-19.855,5.878
				c-6.84,1.229-13.73,2.143-20.641,2.853c-2.193,0.225-4.382,0.398-6.57,0.53v6.601
				C287.968,141.377,291.757,141.263,296.309,140.227z"/>
			<path style="fill:#8C5636;" d="M306.212,121.182c-6.772-2.305-14.24-3.97-21.755-5.817v13.603c2.545-0.063,5.089-0.14,7.63-0.211
				C319.227,127.994,308.151,121.841,306.212,121.182z"/>
			<path style="fill:#6C4029;" d="M388.32,84.794c9.926-1.947,28.438-5.291,40.704-7.104l-33.317,1.158l-8.204-0.389
				c-1.011,0.265-2.022,0.53-3.046,0.811c-14.093,3.869-16.968,2.902-30.862-2.338c-0.075-0.028-0.153-0.062-0.229-0.091
				l-25.305-1.199c0.775,0.644,1.541,1.296,2.284,1.965C344.517,90.372,368.878,88.609,388.32,84.794z"/>
		</g>
	</g>
	<g>
		<polygon id="XMLID_38_" style="fill:#7C492D;" points="137.689,76.264 54.436,74.703 0.003,76.595 0.004,140.618 27.101,140.798 
			156.941,138.11 277.447,141.771 277.447,76.264 225.444,77.727 		"/>
		<g>
			<path style="fill:#583524;" d="M29.811,137.417c12.38-4.237,28.814-7.543,51.527-7.81c20.335-0.237,46.566,2.57,68.195-0.842
				c19.227-3.033,46.648-7.929,62.511-9.116c21.194-1.584,30.959,0.462,65.403-5.721v-9.414c-0.013,0.002-0.026,0.004-0.039,0.006
				c-35.059,6.382-38.284,4.417-59.545,6.006c-16.005,1.197-51.731,1.113-71.231,4.188c-21.147,3.337-42.085,8.428-62.191,8.663
				c-23.297,0.273-52.778-1.157-66.203,3.437c-8.415,2.879-14.209,5.768-18.234,8.664v5.139l20.635,0.137
				C23.358,139.698,26.391,138.587,29.811,137.417z"/>
			<path style="fill:#8C5636;" d="M204.966,127.109c1.414-0.056,2.823-0.076,4.227-0.162c1.405-0.038,2.803-0.142,4.196-0.225
				c1.394-0.069,2.774-0.224,4.153-0.328c1.362-0.174,2.748-0.256,4.078-0.502l2.009-0.293l1.951-0.407l0.97-0.203l0.929-0.26
				c0.606-0.186,1.264-0.309,1.826-0.54l3.808-1.481l0.497-0.194l0.008-0.002c-0.33,0.024-0.66,0.049-0.991,0.073
				c-12.96,0.96-25.75,2.77-37.887,4.739l5.974-0.112L204.966,127.109z"/>
			<path style="fill:#8C5636;" d="M246.749,127.74c-1.306-0.045-2.606-0.022-3.893,0.046c-0.65,0.006-1.28,0.105-1.918,0.165
				c-0.642,0.048-1.267,0.16-1.889,0.279l-0.938,0.162c-0.31,0.053-0.572,0.138-0.862,0.203l-0.852,0.203l-0.432,0.102l-0.504,0.175
				l-1.008,0.349l-0.504,0.175l-0.252,0.087l-0.063,0.022l-0.032,0.011c-0.036,0.014,0.261-0.104,0.127-0.051l-0.018,0.006
				l-0.145,0.049l-2.329,0.749c-0.777,0.249-1.534,0.35-2.301,0.528l-1.146,0.237c-0.379,0.065-0.756,0.096-1.134,0.145
				l-2.262,0.263l-2.236,0.129c-1.495,0.101-2.96,0.024-4.435,0.042c-1.464-0.067-2.928-0.123-4.378-0.245
				c-1.451-0.125-2.897-0.269-4.333-0.457c-2.875-0.371-5.721-0.864-8.538-1.482c-1.41-0.294-2.808-0.667-4.202-1.02
				c-1.13-0.298-2.253-0.633-3.367-0.994c-1.989,0.327-3.962,0.657-5.912,0.987c-26.324,4.469-52.955,6.061-79.5,7.725
				c-13.5,0.847-25.32-1.99-38.82-1.167c-9.633,0.587-20.966,3.148-30.932,5.41l119.198-2.467l13.593,0.413
				c17.732-1.341,35.752-2.624,52.87-4.287c10.213-0.992,18.621-5.107,28.549-5.999c-0.425-0.061-0.849-0.126-1.274-0.177
				C249.366,127.913,248.057,127.79,246.749,127.74z"/>
			<path style="fill:#8C5636;" d="M274.136,117.571c-5.938,4.136-12.713,3.166-19.315,3.513c-1.036,0.054-2.073,0.119-3.11,0.18
				c1.475,0.237,2.937,0.522,4.383,0.885c0.74,0.182,1.469,0.395,2.203,0.622c0.694,0.215,1.33,0.427,2.088,0.71
				c1.044,0.226,2.085,0.463,3.126,0.705l3.47,0.809c1.66,0.402,3.316,0.822,4.973,1.242c1.774-0.625,3.506-1.474,5.178-2.639
				c0.119-0.083,0.212-0.18,0.314-0.272v-0.673c-0.257-0.84-0.232-1.644,0-2.347v-2.391
				C276.61,117.035,275.398,116.693,274.136,117.571z"/>
			<path style="fill:#6C4029;" d="M256.908,134.236c-9.49,0.024-30.078,3.154-39.412,5.161c-0.801,0.172-1.602,0.327-2.403,0.48
				l42.407,1.288c1.532-0.116,2.941-0.1,4.08,0.124l5.496,0.167c-0.383-1.174-0.955-2.299-1.634-3.294
				C262.439,133.756,260.805,134.226,256.908,134.236z"/>
			<path style="fill:#8C5636;" d="M66.543,108.557c5.144-6.209-3.157-13.817-11.076-17.933c-12.076-6.278-27.451-8.81-40.895-9.741
				c-4.762-0.33-9.649-0.53-14.568-0.547v5.182c2.396-0.038,4.879-0.023,7.489,0.054c8.088,0.24,16.16,1.058,24.073,2.804
				c6.708,1.48,9.11,3.74,14.976,7.506c5.569,3.576,10.728,9.195,6.334,13.32c-4.992,4.688-17.249,3.576-23.835,4.131
				c-11.301,0.951-19.278,3.355-29.037,4.894v8.112c14.117-2.763,27.339-5.068,33.094-5.552
				C42.331,120.011,60.28,116.119,66.543,108.557z"/>
			<path style="fill:#603823;" d="M42.008,103.519c4.499-5.133-16.439-9.442-20.14-9.817c-6.515-0.66-14.783-2.586-21.864-2.983
				v7.906c7.501-0.079,18.643,0.436,26.09,2.74c1.356,0.42,1.302,2.385-0.074,2.733c-7.096,1.795-18.217,1.387-23.998,1.978
				c-0.591,0.061-1.272,0.142-2.018,0.239v5.129c3.12-0.51,6.198-0.959,9.214-1.329C15.795,109.307,37.379,108.801,42.008,103.519z"
				/>
			<path style="fill:#6C4029;" d="M90.211,96.387c-6.735-2.463-24.696-17.931-29.064-21.558l-6.712-0.126l-34.472,1.198
				c0.518-0.001,1.045-0.003,1.593-0.006c7.584-0.041,23.502,0.23,30.319,4.005c5.221,2.89,18.687,14.689,22.977,18.514
				c7.678,6.845,11.736,6.72,23.598,9.103c60.339,12.122,118.946-17.602,178.996-18.663v-5.043
				c-31.931,0.394-62.73,3.177-93.897,9.383C153.023,99.271,120.385,107.422,90.211,96.387z"/>
			<path style="fill:#8C5636;" d="M124.59,94.723c13.555-0.505,34.007-4.046,47.209-6.902c31.779-6.873,60.33-1.683,89.755-9.574
				c0.998-0.268,1.683-0.882,2.054-1.593l-38.163,1.073l-30.643-0.511c-3.193,0.431-6.372,0.902-9.536,1.42
				c-27.193,4.448-55.257,15.827-82.97,8.861c-7.459-1.875-15.409-6.352-21.647-12.302L66.32,74.926
				c6.859,6.121,17.112,11.151,23.763,13.873C100.947,93.247,112.879,95.159,124.59,94.723z"/>
			<path style="fill:#603823;" d="M154.744,78.65c3.364-0.688,6.706-1.335,10.042-1.934l-27.097-0.451l-9.183-0.172
				c-2.505,0.833-4.698,1.71-7.512,1.864c-3.438,0.189-6.834,0.129-10.262-0.062c-3.452-0.192-6.351-1.054-9.046-2.305L87.23,75.318
				c7.932,4.973,18.198,6.814,27.267,7.031C128.008,82.672,141.5,81.357,154.744,78.65z"/>
			<path style="fill:#8C5636;" d="M120.995,77.956c2.813-0.154,5.006-1.031,7.512-1.864l-26.82-0.503
				c2.696,1.251,5.594,2.113,9.046,2.305C114.161,78.085,117.557,78.145,120.995,77.956z"/>
			<path style="fill:#513023;" d="M193.036,127.373c0.325,0.026,0.649,0.045,0.974,0.069c0.242-0.039,0.487-0.078,0.729-0.118
				l-2.611,0.049c0.257,0.088,0.518,0.164,0.777,0.248c0.247-0.041,0.499-0.08,0.747-0.121
				C193.448,127.455,193.241,127.42,193.036,127.373z"/>
			<path style="fill:#513023;" d="M274.473,128.103c0.809,0.024,1.69,0.007,2.539-0.037c0.145-0.007,0.29-0.021,0.435-0.03v-1.327
				c-0.487,0.023-0.974,0.061-1.459,0.061c-0.429,0.01-0.855-0.012-1.28-0.019c-0.292-0.014-0.595-0.027-0.874-0.045
				c0.022,0.006,0.045,0.011,0.068,0.017l-0.395-0.041c0.095,0.01,0.215,0.016,0.327,0.023c-0.625-0.164-1.254-0.311-1.88-0.469
				c-0.873,0.307-1.756,0.559-2.647,0.767L274.473,128.103z"/>
			<path style="fill:#513023;" d="M251.622,121.248c-1.504-0.246-3.03-0.375-4.563-0.462c-1.535-0.064-3.082-0.092-4.633,0.028
				c-0.774,0.022-1.552,0.144-2.328,0.23c-0.777,0.074-1.551,0.217-2.324,0.374l-1.159,0.23c-0.388,0.084-0.803,0.22-1.203,0.33
				l-1.206,0.355l-0.588,0.179c6.027-0.447,12.061-0.894,18.094-1.248C251.681,121.259,251.652,121.253,251.622,121.248z"/>
			<path style="fill:#513023;" d="M274.335,130.219l-0.054,0.001l-0.115-0.018l-7.035-1.105l-6.74-1.127
				c-1.854,0.05-3.716,0.055-5.571,0.095c-0.974,0.021-1.925,0.087-2.869,0.172c0.885,0.128,1.768,0.271,2.643,0.456
				c0.647,0.132,1.297,0.266,1.932,0.422c0.622,0.145,1.307,0.336,1.808,0.485l0.437,0.131l0.091,0.014
				c1.173,0.184,2.349,0.348,3.525,0.51l3.53,0.484c2.357,0.302,4.715,0.6,7.081,0.859l0.378,0.041l0.017-0.001
				c0.583-0.025,1.037-0.075,1.541-0.129c0.487-0.071,0.976-0.128,1.456-0.217c0.353-0.06,0.703-0.128,1.054-0.196v-1.137
				c-0.087,0.012-0.174,0.027-0.262,0.038C276.243,130.118,275.332,130.207,274.335,130.219z"/>
			<path style="fill:#513023;" d="M263.511,124.186c-1.041-0.242-2.082-0.479-3.126-0.705c0.06,0.023,0.116,0.042,0.178,0.066
				l-0.528-0.145c0.117,0.025,0.233,0.054,0.349,0.079c-0.758-0.283-1.394-0.495-2.088-0.71c-0.734-0.227-1.464-0.44-2.203-0.622
				c-1.446-0.363-2.908-0.649-4.383-0.885c-6.033,0.354-12.067,0.8-18.094,1.248l-0.008,0.002l-0.497,0.194l-3.808,1.481
				c-0.562,0.231-1.22,0.354-1.826,0.54l-0.929,0.26l-0.97,0.203l-1.951,0.407l-2.009,0.293c-1.33,0.247-2.716,0.328-4.078,0.502
				c-1.379,0.104-2.759,0.258-4.153,0.328c-1.393,0.082-2.791,0.187-4.196,0.225c-1.405,0.086-2.813,0.106-4.227,0.162l-4.253,0.104
				l-5.974,0.112c-0.243,0.039-0.487,0.078-0.729,0.118c2.516,0.191,5.031,0.346,7.543,0.465c1.417,0.08,2.835,0.119,4.251,0.163
				c1.417,0.025,2.831,0.085,4.245,0.077c1.414,0.025,2.826-0.016,4.235-0.038c1.41-0.012,2.814-0.098,4.217-0.155
				c1.394-0.133,2.803-0.173,4.18-0.382l2.075-0.24l2.041-0.36c0.339-0.063,0.682-0.114,1.017-0.186l0.991-0.256
				c0.652-0.186,1.338-0.304,1.961-0.542l3.928-1.456c0.632-0.27,1.437-0.436,2.154-0.653c0.741-0.227,1.471-0.37,2.2-0.502
				c0.73-0.148,1.46-0.284,2.198-0.352c0.736-0.081,1.471-0.197,2.21-0.217c2.953-0.197,5.903-0.014,8.802,0.398
				c1.45,0.212,2.891,0.474,4.315,0.813c1.391,0.339,2.727,0.722,4.129,1.224l6.883,1.394l1.721,0.366
				c0.891-0.208,1.775-0.459,2.647-0.767c-1.656-0.42-3.313-0.84-4.973-1.242L263.511,124.186z"/>
			<path style="fill:#513023;" d="M260.392,127.97l-0.283-0.047l-0.075-0.013l-0.15-0.049c-1.237-0.406-2.617-0.747-3.952-1.039
				c-1.346-0.305-2.708-0.537-4.074-0.722c-2.733-0.37-5.493-0.473-8.217-0.31c-0.685,0.008-1.358,0.112-2.036,0.178
				c-0.681,0.054-1.349,0.172-2.015,0.301c-0.672,0.114-1.339,0.236-1.961,0.423c-0.644,0.192-1.249,0.277-1.933,0.557l-1.954,0.703
				l-2.15,0.719c-0.716,0.243-1.445,0.348-2.166,0.526l-1.084,0.241c-0.362,0.065-0.725,0.108-1.087,0.163l-2.172,0.31l-2.171,0.182
				c-1.448,0.139-2.891,0.104-4.333,0.163c-1.44-0.019-2.879-0.008-4.313-0.072c-1.434-0.064-2.867-0.144-4.293-0.27
				c-2.857-0.207-5.696-0.563-8.522-0.976c-2.617-0.388-5.219-0.867-7.799-1.44c-0.248,0.041-0.5,0.08-0.747,0.121
				c1.115,0.361,2.237,0.696,3.367,0.994c1.395,0.353,2.792,0.725,4.202,1.02c2.818,0.618,5.663,1.111,8.538,1.482
				c1.436,0.189,2.882,0.333,4.333,0.457c1.45,0.122,2.914,0.178,4.378,0.245c1.475-0.018,2.94,0.059,4.435-0.042l2.236-0.129
				l2.262-0.263c0.378-0.049,0.755-0.08,1.134-0.145l1.146-0.237c0.767-0.178,1.524-0.279,2.301-0.528l2.329-0.749l0.145-0.049
				l0.018-0.006c0.135-0.053-0.163,0.065-0.127,0.051l0.032-0.011l0.063-0.022l0.252-0.087l0.504-0.175l1.008-0.349l0.504-0.175
				l0.432-0.102l0.852-0.203c0.29-0.065,0.552-0.15,0.862-0.203l0.938-0.162c0.622-0.12,1.247-0.231,1.889-0.279
				c0.638-0.06,1.268-0.159,1.918-0.165c1.287-0.068,2.587-0.091,3.893-0.046c1.308,0.05,2.617,0.173,3.929,0.32
				c0.425,0.051,0.85,0.116,1.274,0.177c0.943-0.085,1.895-0.151,2.869-0.172C256.676,128.025,258.538,128.02,260.392,127.97z"/>
			<path style="fill:#513023;" d="M273.901,126.724c-0.023-0.006-0.045-0.011-0.068-0.017c-0.112-0.007-0.232-0.013-0.327-0.023
				L273.901,126.724z"/>
			<path style="fill:#513023;" d="M260.564,123.547c-0.062-0.023-0.118-0.043-0.178-0.066c-0.117-0.025-0.233-0.054-0.349-0.079
				L260.564,123.547z"/>
			<path style="fill:#35211D;" d="M260.832,125.286c-0.044-0.016-0.085-0.027-0.129-0.042l-0.095-0.019L260.832,125.286z"/>
			<path style="fill:#35211D;" d="M274.551,128.12l-0.078-0.017c-0.029-0.001-0.061,0-0.09-0.001L274.551,128.12z"/>
			<path style="fill:#35211D;" d="M193.652,127.5c0.119-0.019,0.239-0.038,0.358-0.058c-0.325-0.025-0.649-0.043-0.974-0.069
				C193.241,127.42,193.448,127.455,193.652,127.5z"/>
			<path style="fill:#35211D;" d="M274.473,128.103l0.078,0.017l-0.168-0.017C274.412,128.104,274.444,128.103,274.473,128.103
				l-5.167-1.099c-2.905,0.678-5.899,0.885-8.914,0.966l6.74,1.127l7.035,1.105l0.115,0.018l0.054-0.001
				c0.996-0.013,1.908-0.101,2.85-0.222c0.087-0.011,0.174-0.026,0.262-0.038v-1.923c-0.145,0.009-0.29,0.023-0.435,0.03
				C276.163,128.11,275.282,128.128,274.473,128.103z"/>
			<path style="fill:#35211D;" d="M201.452,128.94c2.826,0.413,5.665,0.769,8.522,0.976c1.426,0.127,2.859,0.206,4.293,0.27
				c1.434,0.064,2.874,0.053,4.313,0.072c1.443-0.06,2.885-0.024,4.333-0.163l2.171-0.182l2.172-0.31
				c0.362-0.055,0.725-0.098,1.087-0.163l1.084-0.241c0.721-0.179,1.45-0.284,2.166-0.526l2.15-0.719l1.954-0.703
				c0.684-0.28,1.289-0.366,1.933-0.557c0.622-0.187,1.288-0.31,1.961-0.423c0.666-0.129,1.334-0.247,2.015-0.301
				c0.678-0.066,1.351-0.169,2.036-0.178c2.724-0.163,5.484-0.06,8.217,0.31c1.366,0.185,2.729,0.416,4.074,0.722
				c1.335,0.292,2.715,0.633,3.952,1.039l0.15,0.049l0.075,0.013l0.283,0.047c3.015-0.081,6.009-0.288,8.914-0.966l-1.721-0.366
				l-6.883-1.394c0.044,0.016,0.085,0.026,0.129,0.042l-0.224-0.061l0.095,0.019c-1.402-0.502-2.738-0.885-4.129-1.224
				c-1.425-0.339-2.866-0.601-4.315-0.813c-2.899-0.412-5.85-0.596-8.802-0.398c-0.738,0.019-1.474,0.136-2.21,0.217
				c-0.738,0.068-1.469,0.204-2.198,0.352c-0.729,0.132-1.459,0.275-2.2,0.502c-0.717,0.216-1.523,0.383-2.154,0.653l-3.928,1.456
				c-0.623,0.238-1.309,0.356-1.961,0.542l-0.991,0.256c-0.335,0.072-0.678,0.123-1.017,0.186l-2.041,0.36l-2.075,0.24
				c-1.377,0.208-2.785,0.248-4.18,0.382c-1.403,0.056-2.808,0.143-4.217,0.155c-1.41,0.022-2.821,0.063-4.235,0.038
				c-1.414,0.008-2.828-0.052-4.245-0.077c-1.416-0.044-2.835-0.083-4.251-0.163c-2.512-0.119-5.027-0.273-7.543-0.465
				c-0.119,0.019-0.239,0.038-0.358,0.058C196.232,128.072,198.835,128.552,201.452,128.94z"/>
		</g>
	</g>
	<g>
		<polygon style="fill:#7C492D;" points="165.572,374.571 99.824,376.21 0.002,375.549 0.002,437 165.572,437 		"/>
		<g>
			<path style="fill:#583524;" d="M5.424,375.585l-5.422-0.036v5.136C2.361,378.987,4.114,377.287,5.424,375.585z"/>
			<path style="fill:#8C5636;" d="M60.985,384.329c7.475-3.026,14.84-5.544,22.164-8.23l-27.73-0.184
				c-3.321,1.483-6.883,2.828-11.041,4.046c-7.579,2.22-26.68,6.402-44.375,9.865v8.112c2.962-0.467,6.082-0.857,9.518-1.099
				C24.246,395.806,47.146,389.932,60.985,384.329z"/>
			<path style="fill:#8C5636;" d="M48.535,421.539c-18.265,5.472-30.857,8.829-48.533,9.111v5.182
				c10.199,0.036,20.54-0.723,30.211-2.817c13.916-3.014,25.693-6.92,39.571-10.04c14.704-3.306,29.99-10.091,43.433-2.438
				c7.353,4.186,14.147,10.691,21.093,16.464h14.277c-11.25-7.481-22.322-15.978-34.12-21.503
				C96.593,407.127,66.63,416.117,48.535,421.539z"/>
			<path style="fill:#603823;" d="M123.282,378.04c1.965-0.916,3.943-1.764,5.933-2.562l-28.253,0.704
				c-29.652,10.379-67.911,23.14-100.96,28.541v5.129c18.019-2.35,79.205-15.035,92.399-20.382
				C105.433,384.188,110.549,383.974,123.282,378.04z"/>
			<path style="fill:#603823;" d="M3.843,425.498c15.524-0.66,28.83-5.221,44.049-8.41c14.935-3.129,29.833-7.019,44.865-9.613
				c7.61-1.313,17.112-2.887,24.641-0.281c6.053,2.094,11.111,6.145,16.985,8.622c7.637,3.221,15.784,5.264,23.186,9.054
				c2.685,1.375,5.334,2.82,8.002,4.228v-5.693c-5.305-2.727-10.648-5.366-16.281-7.413c-4.773-1.733-9.878-3.118-14.403-5.456
				c-3.329-1.719-6.479-3.773-9.817-5.47c-7.066-3.592-14.398-4.548-22.281-3.921c-17.016,1.353-37.282,3.912-53.945,7.491
				c-16.041,3.445-28.806,8.119-45.208,8.816c-1.063,0.045-2.299,0.076-3.636,0.09v7.906C1.329,425.523,2.619,425.55,3.843,425.498z
				"/>
			<path style="fill:#6C4029;" d="M153.72,376.306c-0.695,0.158-15.341,3.69-23.694,5.628c-5.627,1.306-23.781,5.286-27.808,9.88
				c-4.317,4.925,9.462,4.051,14.251,5.795c7.99,2.91,41.531,13.819,49.003,16.125c0.031,0.01,0.069,0.026,0.101,0.037v-8.863
				c-3.429-1.739-6.958-2.967-10.602-3.267c-9.091-0.748-43.754-6.201-36.464-10.411c5.919-3.418,13.221-4.685,19.855-5.878
				c6.84-1.229,13.73-2.143,20.641-2.853c2.193-0.225,4.382-0.398,6.57-0.53v-6.601C162.061,375.155,158.272,375.27,153.72,376.306z
				"/>
			<path style="fill:#8C5636;" d="M143.816,395.351c6.772,2.305,14.24,3.97,21.755,5.817v-13.603
				c-2.545,0.063-5.089,0.14-7.63,0.211C130.802,388.539,141.879,394.691,143.816,395.351z"/>
			<path style="fill:#6C4029;" d="M61.709,431.738c-7.117,1.396-18.644,3.509-29.122,5.262h33.955
				c10.574-2.836,14.672-2.748,22.775,0h27.992C102.903,426.364,80.107,428.129,61.709,431.738z"/>
		</g>
	</g>
	<polygon style="fill:#7C492D;" points="450.025,437 450.025,375.914 422.928,375.735 293.088,378.422 172.582,374.762 172.582,437 
			"/>
	<g>
		<path style="fill:#583524;" d="M420.218,379.116c-12.38,4.237-28.814,7.543-51.527,7.81c-20.335,0.237-46.566-2.57-68.195,0.842
			c-19.227,3.033-46.648,7.929-62.511,9.116c-21.194,1.584-30.959-0.462-65.403,5.721v9.414c0.013-0.002,0.026-0.004,0.039-0.006
			c35.059-6.382,38.284-4.416,59.545-6.006c16.005-1.197,51.731-1.112,71.231-4.188c21.147-3.337,42.085-8.428,62.191-8.663
			c23.297-0.273,52.777,1.157,66.203-3.437c8.415-2.879,14.209-5.768,18.234-8.664v-5.139l-20.635-0.137
			C426.671,376.834,423.638,377.946,420.218,379.116z"/>
		<path style="fill:#8C5636;" d="M245.063,389.424c-1.414,0.056-2.823,0.076-4.227,0.162c-1.405,0.038-2.803,0.142-4.196,0.225
			c-1.394,0.069-2.774,0.224-4.153,0.328c-1.362,0.174-2.748,0.256-4.078,0.502l-2.009,0.293l-1.951,0.407l-0.97,0.203l-0.929,0.26
			c-0.606,0.186-1.264,0.309-1.826,0.54l-3.808,1.481l-0.497,0.194l-0.008,0.002c0.33-0.025,0.66-0.049,0.99-0.073
			c12.96-0.96,25.75-2.77,37.887-4.739l-5.974,0.112L245.063,389.424z"/>
		<path style="fill:#8C5636;" d="M203.28,388.793c1.306,0.045,2.606,0.022,3.893-0.046c0.65-0.006,1.28-0.105,1.918-0.165
			c0.642-0.048,1.267-0.16,1.889-0.279l0.938-0.162c0.31-0.053,0.572-0.138,0.862-0.203l0.852-0.203l0.432-0.102l0.504-0.175
			l1.008-0.349l0.504-0.175l0.252-0.087l0.063-0.022l0.032-0.011c0.036-0.014-0.261,0.104-0.127,0.051l0.018-0.006l0.145-0.049
			l2.329-0.749c0.777-0.249,1.534-0.35,2.301-0.528l1.145-0.237c0.379-0.065,0.756-0.096,1.134-0.146l2.262-0.263l2.236-0.129
			c1.495-0.101,2.96-0.024,4.435-0.042c1.464,0.067,2.928,0.123,4.378,0.245c1.451,0.125,2.897,0.268,4.333,0.457
			c2.875,0.371,5.72,0.864,8.538,1.482c1.41,0.294,2.808,0.667,4.202,1.02c1.13,0.298,2.253,0.633,3.367,0.994
			c1.989-0.327,3.962-0.657,5.912-0.987c26.324-4.469,52.955-6.061,79.5-7.725c13.499-0.847,25.319,1.99,38.82,1.167
			c9.633-0.587,20.966-3.148,30.932-5.41l-119.198,2.467l-13.593-0.413c-17.732,1.341-35.752,2.624-52.87,4.287
			c-10.213,0.992-18.621,5.107-28.549,6c0.425,0.061,0.849,0.126,1.274,0.177C200.663,388.62,201.972,388.743,203.28,388.793z"/>
		<path style="fill:#8C5636;" d="M175.893,398.961c5.938-4.136,12.713-3.166,19.315-3.513c1.036-0.054,2.073-0.119,3.11-0.18
			c-1.475-0.237-2.937-0.522-4.383-0.885c-0.74-0.182-1.469-0.395-2.203-0.622c-0.694-0.214-1.33-0.427-2.088-0.71
			c-1.044-0.226-2.085-0.463-3.126-0.705l-3.47-0.81c-1.66-0.402-3.316-0.822-4.972-1.242c-1.774,0.625-3.506,1.474-5.178,2.639
			c-0.119,0.083-0.212,0.18-0.314,0.272v0.673c0.257,0.84,0.232,1.644,0,2.347v2.391
			C173.419,399.497,174.631,399.84,175.893,398.961z"/>
		<path style="fill:#6C4029;" d="M193.121,382.296c9.49-0.024,30.078-3.154,39.412-5.161c0.801-0.172,1.602-0.327,2.403-0.48
			l-42.407-1.288c-1.532,0.116-2.941,0.1-4.08-0.124l-5.496-0.167c0.382,1.174,0.955,2.299,1.634,3.294
			C187.59,382.777,189.224,382.306,193.121,382.296z"/>
		<path style="fill:#8C5636;" d="M383.486,407.975c-5.144,6.209,3.157,13.817,11.076,17.933c12.076,6.278,27.451,8.81,40.895,9.741
			c4.762,0.33,9.648,0.53,14.568,0.547v-5.182c-2.396,0.038-4.879,0.023-7.489-0.054c-8.088-0.24-16.16-1.058-24.073-2.805
			c-6.708-1.48-9.11-3.74-14.976-7.506c-5.569-3.576-10.728-9.195-6.334-13.32c4.992-4.688,17.249-3.576,23.835-4.13
			c11.301-0.951,19.278-3.355,29.037-4.894v-8.112c-14.117,2.763-27.339,5.068-33.094,5.552
			C407.698,396.522,389.749,400.414,383.486,407.975z"/>
		<path style="fill:#603823;" d="M408.021,413.013c-4.499,5.133,16.439,9.442,20.14,9.817c6.515,0.66,14.783,2.586,21.864,2.983
			v-7.906c-7.501,0.078-18.643-0.436-26.09-2.74c-1.355-0.419-1.302-2.385,0.074-2.733c7.096-1.795,18.217-1.387,23.998-1.978
			c0.591-0.061,1.272-0.142,2.018-0.239v-5.129c-3.12,0.51-6.198,0.959-9.213,1.329C434.234,407.225,412.65,407.732,408.021,413.013
			z"/>
		<path style="fill:#6C4029;" d="M375.176,418.118c-7.678-6.846-11.736-6.72-23.598-9.103
			c-60.339-12.122-118.946,17.602-178.996,18.663v5.043c31.931-0.394,62.73-3.177,93.897-9.383
			c30.527-6.078,63.164-14.229,93.338-3.194c5.01,1.832,16.227,10.857,23.445,16.855h15.651c-0.255-0.122-0.526-0.238-0.76-0.367
			C392.932,433.742,379.466,421.943,375.176,418.118z"/>
		<path style="fill:#8C5636;" d="M325.439,421.81c-13.554,0.505-34.007,4.046-47.209,6.902c-29.867,6.46-56.882,2.267-84.451,8.288
			h76.026c25.612-4.886,51.924-14.501,77.928-7.965c5.51,1.385,11.288,4.194,16.446,7.965h13.495
			c-6.004-4.013-12.839-7.265-17.729-9.267C349.082,423.285,337.15,421.374,325.439,421.81z"/>
		<path style="fill:#603823;" d="M299.913,437h53.586c-5.862-1.867-12.159-2.678-17.966-2.817
			C323.591,433.898,311.666,434.897,299.913,437z"/>
		<path style="fill:#513023;" d="M198.407,395.284c1.504,0.246,3.03,0.375,4.564,0.462c1.535,0.064,3.082,0.092,4.633-0.028
			c0.774-0.022,1.552-0.144,2.328-0.23c0.777-0.074,1.551-0.217,2.324-0.374l1.159-0.23c0.388-0.084,0.803-0.22,1.203-0.33
			l1.206-0.355l0.588-0.179c-6.027,0.447-12.061,0.894-18.094,1.248C198.348,395.273,198.377,395.28,198.407,395.284z"/>
		<path style="fill:#513023;" d="M175.556,388.429c-0.809-0.024-1.69-0.007-2.539,0.037c-0.145,0.007-0.29,0.021-0.435,0.03v1.327
			c0.487-0.023,0.974-0.061,1.459-0.061c0.429-0.01,0.855,0.012,1.28,0.019c0.292,0.013,0.596,0.027,0.874,0.045
			c-0.022-0.006-0.045-0.011-0.068-0.017l0.395,0.041c-0.095-0.01-0.215-0.016-0.327-0.023c0.625,0.164,1.254,0.311,1.88,0.47
			c0.873-0.308,1.756-0.559,2.647-0.767L175.556,388.429z"/>
		<path style="fill:#513023;" d="M175.694,386.313l0.054-0.001l0.115,0.018l7.035,1.105l6.74,1.127
			c1.854-0.05,3.716-0.055,5.57-0.095c0.974-0.021,1.926-0.087,2.869-0.172c-0.885-0.128-1.768-0.271-2.643-0.456
			c-0.647-0.132-1.297-0.266-1.932-0.422c-0.622-0.146-1.307-0.336-1.808-0.485l-0.437-0.131l-0.091-0.014
			c-1.173-0.184-2.349-0.348-3.525-0.51l-3.53-0.484c-2.357-0.302-4.715-0.6-7.081-0.859l-0.378-0.041l-0.017,0.001
			c-0.583,0.025-1.037,0.075-1.541,0.129c-0.487,0.071-0.976,0.128-1.456,0.217c-0.353,0.06-0.703,0.128-1.054,0.196v1.137
			c0.087-0.012,0.174-0.027,0.262-0.038C173.786,386.414,174.697,386.326,175.694,386.313z"/>
		<path style="fill:#513023;" d="M256.992,389.159c-0.325-0.026-0.649-0.044-0.974-0.069c-0.242,0.04-0.487,0.078-0.73,0.118
			l2.611-0.049c-0.258-0.088-0.518-0.164-0.777-0.248c-0.247,0.041-0.499,0.08-0.747,0.121
			C256.581,389.078,256.788,389.113,256.992,389.159z"/>
		<path style="fill:#513023;" d="M189.637,388.563l0.283,0.047l0.075,0.013l0.15,0.049c1.237,0.406,2.617,0.747,3.952,1.039
			c1.346,0.305,2.708,0.537,4.074,0.722c2.733,0.37,5.492,0.473,8.217,0.31c0.685-0.009,1.358-0.112,2.036-0.178
			c0.681-0.054,1.349-0.172,2.015-0.301c0.672-0.114,1.339-0.236,1.961-0.423c0.644-0.192,1.249-0.277,1.933-0.557l1.954-0.703
			l2.15-0.719c0.716-0.243,1.445-0.348,2.166-0.526l1.084-0.241c0.362-0.065,0.724-0.108,1.087-0.163l2.172-0.31l2.171-0.181
			c1.448-0.139,2.891-0.104,4.333-0.163c1.44,0.019,2.88,0.008,4.313,0.072c1.434,0.064,2.866,0.144,4.293,0.271
			c2.857,0.207,5.696,0.563,8.522,0.976c2.617,0.388,5.219,0.867,7.799,1.44c0.248-0.04,0.5-0.08,0.747-0.121
			c-1.115-0.361-2.237-0.696-3.367-0.994c-1.395-0.353-2.792-0.725-4.202-1.02c-2.818-0.618-5.663-1.111-8.538-1.482
			c-1.436-0.189-2.882-0.332-4.333-0.457c-1.45-0.122-2.914-0.178-4.378-0.245c-1.475,0.018-2.94-0.059-4.435,0.042l-2.236,0.129
			l-2.262,0.263c-0.378,0.049-0.755,0.08-1.134,0.146l-1.145,0.237c-0.767,0.178-1.524,0.279-2.301,0.528l-2.329,0.749l-0.145,0.049
			l-0.018,0.006c-0.135,0.053,0.163-0.065,0.127-0.051l-0.032,0.011l-0.063,0.022l-0.252,0.087l-0.504,0.175l-1.008,0.349
			l-0.504,0.175l-0.432,0.102l-0.852,0.203c-0.289,0.065-0.552,0.15-0.862,0.203l-0.938,0.162c-0.622,0.12-1.247,0.231-1.889,0.279
			c-0.638,0.06-1.269,0.159-1.918,0.165c-1.287,0.068-2.587,0.091-3.893,0.046c-1.308-0.05-2.617-0.173-3.929-0.32
			c-0.425-0.051-0.85-0.116-1.274-0.177c-0.943,0.085-1.895,0.151-2.869,0.172C193.354,388.508,191.492,388.513,189.637,388.563z"/>
		<path style="fill:#513023;" d="M186.518,392.346c1.041,0.242,2.082,0.479,3.126,0.705c-0.06-0.023-0.116-0.042-0.178-0.066
			l0.528,0.145c-0.117-0.025-0.233-0.054-0.349-0.079c0.758,0.283,1.394,0.495,2.088,0.71c0.734,0.227,1.464,0.44,2.203,0.622
			c1.446,0.363,2.908,0.649,4.383,0.885c6.033-0.354,12.067-0.8,18.094-1.248l0.008-0.002l0.497-0.194l3.808-1.481
			c0.562-0.232,1.22-0.354,1.826-0.54l0.929-0.26l0.97-0.203l1.951-0.407l2.009-0.293c1.33-0.247,2.716-0.328,4.078-0.502
			c1.379-0.104,2.759-0.258,4.153-0.328c1.393-0.082,2.791-0.187,4.196-0.225c1.404-0.086,2.813-0.106,4.227-0.162l4.253-0.104
			l5.974-0.112c0.243-0.039,0.487-0.078,0.73-0.118c-2.516-0.191-5.031-0.346-7.543-0.465c-1.417-0.08-2.835-0.119-4.251-0.163
			c-1.417-0.025-2.831-0.085-4.245-0.077c-1.414-0.025-2.826,0.016-4.235,0.038c-1.41,0.012-2.814,0.098-4.217,0.155
			c-1.394,0.133-2.803,0.173-4.18,0.382l-2.075,0.24l-2.041,0.36c-0.339,0.063-0.682,0.114-1.017,0.185l-0.99,0.256
			c-0.652,0.186-1.338,0.304-1.961,0.542l-3.928,1.456c-0.632,0.27-1.437,0.436-2.154,0.653c-0.741,0.227-1.471,0.37-2.2,0.502
			c-0.729,0.148-1.46,0.284-2.198,0.353c-0.736,0.08-1.471,0.197-2.21,0.217c-2.953,0.197-5.903,0.014-8.802-0.398
			c-1.45-0.212-2.891-0.473-4.315-0.813c-1.391-0.339-2.727-0.722-4.129-1.224l-6.883-1.394l-1.721-0.366
			c-0.891,0.208-1.775,0.459-2.647,0.767c1.656,0.42,3.313,0.84,4.972,1.242L186.518,392.346z"/>
		<path style="fill:#513023;" d="M176.128,389.808c0.023,0.006,0.045,0.011,0.068,0.017c0.112,0.007,0.232,0.013,0.327,0.023
			L176.128,389.808z"/>
		<path style="fill:#513023;" d="M189.465,392.986c0.062,0.023,0.118,0.043,0.178,0.066c0.117,0.025,0.233,0.054,0.349,0.079
			L189.465,392.986z"/>
		<path style="fill:#35211D;" d="M189.197,391.246c0.044,0.016,0.085,0.027,0.129,0.042l0.095,0.019L189.197,391.246z"/>
		<path style="fill:#35211D;" d="M175.478,388.413l0.078,0.017c0.029,0.001,0.061,0,0.09,0.001L175.478,388.413z"/>
		<path style="fill:#35211D;" d="M175.556,388.429l-0.078-0.017l0.168,0.017C175.617,388.429,175.585,388.43,175.556,388.429
			l5.166,1.099c2.906-0.678,5.899-0.884,8.915-0.966l-6.74-1.127l-7.035-1.105l-0.115-0.018l-0.054,0.001
			c-0.996,0.013-1.908,0.101-2.85,0.222c-0.087,0.011-0.174,0.026-0.262,0.038v1.923c0.145-0.009,0.29-0.023,0.435-0.03
			C173.866,388.422,174.747,388.405,175.556,388.429z"/>
		<path style="fill:#35211D;" d="M256.377,389.033c-0.119,0.019-0.239,0.039-0.358,0.058c0.325,0.025,0.649,0.043,0.974,0.069
			C256.788,389.113,256.581,389.078,256.377,389.033z"/>
		<path style="fill:#35211D;" d="M248.577,387.593c-2.826-0.412-5.665-0.768-8.522-0.976c-1.427-0.127-2.859-0.206-4.293-0.271
			c-1.434-0.064-2.874-0.053-4.313-0.072c-1.442,0.06-2.885,0.024-4.333,0.163l-2.171,0.181l-2.172,0.31
			c-0.362,0.055-0.725,0.098-1.087,0.163l-1.084,0.241c-0.721,0.179-1.45,0.284-2.166,0.526l-2.15,0.719l-1.954,0.703
			c-0.684,0.28-1.289,0.366-1.933,0.557c-0.622,0.187-1.288,0.31-1.961,0.423c-0.666,0.129-1.334,0.247-2.015,0.301
			c-0.678,0.066-1.351,0.169-2.036,0.178c-2.724,0.163-5.484,0.06-8.217-0.31c-1.366-0.184-2.729-0.416-4.074-0.722
			c-1.335-0.292-2.715-0.633-3.952-1.039l-0.15-0.049l-0.075-0.013l-0.283-0.047c-3.016,0.081-6.009,0.288-8.915,0.966l1.721,0.366
			l6.883,1.394c-0.044-0.016-0.085-0.026-0.129-0.042l0.224,0.062l-0.095-0.019c1.402,0.502,2.738,0.885,4.129,1.224
			c1.425,0.339,2.866,0.601,4.315,0.813c2.899,0.412,5.85,0.596,8.802,0.398c0.738-0.019,1.474-0.136,2.21-0.217
			c0.738-0.069,1.469-0.204,2.198-0.353c0.729-0.132,1.459-0.275,2.2-0.502c0.717-0.216,1.523-0.383,2.154-0.653l3.928-1.456
			c0.623-0.238,1.309-0.357,1.961-0.542l0.99-0.256c0.335-0.072,0.678-0.123,1.017-0.185l2.041-0.36l2.075-0.24
			c1.377-0.208,2.785-0.248,4.18-0.382c1.403-0.056,2.808-0.143,4.217-0.155c1.41-0.022,2.821-0.063,4.235-0.038
			c1.414-0.008,2.828,0.052,4.245,0.077c1.416,0.044,2.835,0.083,4.251,0.163c2.512,0.119,5.027,0.273,7.543,0.465
			c0.119-0.019,0.239-0.038,0.358-0.058C253.797,388.46,251.195,387.98,248.577,387.593z"/>
	</g>
	<g id="XMLID_1_">
		<rect id="XMLID_4_" x="442.527" style="fill:#3A2219;" width="5.213" height="64.239"/>
		<rect id="XMLID_3_" x="447.11" y="0" style="fill:#AA6B52;" width="2.917" height="64.239"/>
		<rect id="XMLID_2_" x="445.052" y="0" style="fill:#190E0B;" width="2.132" height="64.239"/>
	</g>
	<g id="XMLID_5_">
		<rect id="XMLID_8_" x="442.527" y="151.025" style="fill:#3A2219;" width="5.213" height="64.832"/>
		<rect id="XMLID_7_" x="447.11" y="151.025" style="fill:#AA6B52;" width="2.917" height="64.832"/>
		<rect id="XMLID_6_" x="445.052" y="151.025" style="fill:#190E0B;" width="2.132" height="64.832"/>
	</g>
	<g id="XMLID_9_">
		<rect id="XMLID_12_" x="442.527" y="299.462" style="fill:#3A2219;" width="5.213" height="65.556"/>
		<rect id="XMLID_11_" x="447.11" y="299.462" style="fill:#AA6B52;" width="2.917" height="65.556"/>
		<rect id="XMLID_10_" x="445.052" y="299.462" style="fill:#190E0B;" width="2.132" height="65.556"/>
	</g>
	<g id="XMLID_95_">
		<rect id="XMLID_98_" x="186.992" y="224.239" style="fill:#3A2219;" width="10.91" height="65.417"/>
		<rect id="XMLID_97_" x="197.272" y="224.239" style="fill:#AA6B52;" width="4.479" height="65.417"/>
		<rect id="XMLID_96_" x="195.214" y="224.239" style="fill:#190E0B;" width="2.132" height="65.417"/>
	</g>
	<g>
		<polygon style="fill:#7C492D;" points="417.848,288.623 450.013,289.111 450.013,224.9 348.848,226.815 199.515,224.165 
			199.515,289.668 289.181,287.952 		"/>
		<g>
			<path style="fill:#8C5636;" d="M219.389,289.288l19.055-0.365c-12.423-5.187-25.395-8.056-38.929-6.489v5.103
				C206.527,286.739,213,287.482,219.389,289.288z"/>
			<path style="fill:#6C4029;" d="M227.974,276.883c7.974,1.719,16.611,2.669,24.248,5.621c3.849,1.488,7.309,3.553,10.576,5.952
				l17.303-0.331c-5.238-3.724-10.126-7.301-13.947-9.831c-11.191-7.409-54.167-9.603-61.18-10.108
				c-1.821-0.131-3.643-0.263-5.46-0.428v5.05c1.821,0.158,3.645,0.286,5.46,0.417C212.805,273.794,220.305,275.23,227.974,276.883z
				"/>
			<path style="fill:#583524;" d="M434.303,252.665c-8.087-0.24-16.159-1.058-24.072-2.804c-6.708-1.48-9.11-3.739-14.975-7.506
				c-5.569-3.576-10.727-9.195-6.334-13.32c1.765-1.658,4.446-2.582,7.457-3.119l-17.16,0.325c-1.576,1.049-2.931,2.194-3.963,3.44
				c-5.143,6.209,3.157,13.816,11.075,17.932c12.076,6.277,27.449,8.81,40.893,9.74c7.409,0.513,15.12,0.718,22.789,0.395v-5.407
				C445.164,252.714,440.027,252.835,434.303,252.665z"/>
			<path style="fill:#8C5636;" d="M399.79,234.719c-4.499,5.133,16.438,9.441,20.139,9.816c7.737,0.784,17.954,3.362,25.708,3.032
				c1.479-0.063,2.934-0.171,4.376-0.3v-8.057c-1.501,0.134-3.02,0.246-4.581,0.313c-7.025,0.299-20.953,0.065-29.729-2.65
				c-1.355-0.419-1.302-2.385,0.074-2.733c7.096-1.795,18.216-1.387,23.997-1.978c3.411-0.349,6.825-0.658,10.24-0.952v-5.087
				c-5.856,0.411-11.707,0.92-17.435,2C426.066,229.352,404.419,229.437,399.79,234.719z"/>
			<path style="fill:#6C4029;" d="M330.903,227.424c7.678,0.812,12.967,3.747,18.438,9.189c4.464,4.44,7.213,15.234,12.291,18.957
				c16.983,12.453,23.932,7.26,37.405,9.206c16.877,2.438,33.939,3.16,50.977,2.836v-6.182c-9.079,0.87-17.795,1.227-25.787,0.646
				c-14.66-1.066-29.941-4.386-44.532-8.062c-13.196-3.324-22.411-20.295-27.715-27.258l-3.13,0.059l-84.389-1.497
				c-21.992,5.438-42.657,13.518-64.944,16.321v5.3c20.575-1.882,40.595-7.077,60.662-12.334
				C272.828,231.29,320.351,226.309,330.903,227.424z"/>
			<path style="fill:#603823;" d="M249.88,268.421c18.326,4.663,33.894,12.837,45.999,19.566l25.62,0.134
				c-4.728-1.465-9.462-3.275-13.285-4.448c-13.769-4.224-26.667-18.021-74.199-25.185c-8.342-1.257-16.869-1.526-25.305-1.738
				c-2.949,0.43-6.073,0.538-9.195,0.712v4.614c1.802-0.151,3.607-0.276,5.422-0.305C211.371,261.667,238.46,265.515,249.88,268.421
				z"/>
			<path style="fill:#603823;" d="M433.213,281.997c-7.472-0.168-52.125,1.8-68.333,3.188c-4.372,0.374-10.352,1.796-16.266,3.077
				l69.234,0.362l32.165,0.487v-8.252C443.851,281.732,436.754,282.077,433.213,281.997z"/>
			<path style="fill:#603823;" d="M208.7,256.749c0.003,0,0.006,0,0.009,0c0.339-0.049,0.677-0.098,1.011-0.156
				c9.804-1.724,24.377-3.601,34.16-5.417c19.864-3.687,43.333-7.514,52.518-6.88c9.062,0.625,18.149,1.508,26.878,4.195
				c9.399,2.894,16.698,7.608,24.052,14.098c5.711,5.039,11.511,10.126,18.784,12.704c6.538,2.318,44.434,2.307,56.482,1.676
				c5.065-0.265,17.968-1.627,27.42-2.014v-4.237c-14.751-0.363-31.871-0.053-40.467,0.643c-12.187,0.988-40.633-4.383-46-8.062
				c-5.852-4.011-12.793-12.718-18.333-17.132c-9.949-7.925-19.94-6.13-32.333-7.785c-14.425-1.926-33.147-0.809-47.639,0.831
				c-14.942,1.691-29.341,6.407-43.943,9.827c-7.225,1.692-14.394,3.086-21.784,3.659v4.435
				C202.569,256.883,205.627,256.672,208.7,256.749z"/>
			<path style="fill:#6C4029;" d="M358.191,277.697c-1.489-7.131-11.792-10.642-17.827-12.125
				c-9.119-2.242-18.561-4.289-26.891-8.841c-7.942-4.34-15.268-5.495-24.204-5.298c-35.389,0.781-29.187,6.282-28.055,6.324
				c10.583,0.394,22.034,5.927,31.567,10.282c8.777,4.01,17.095,9.254,26.489,11.728
				C323.964,281.003,360.553,289.017,358.191,277.697z M347.444,278.894c-6.55,6.608-25.683-3.701-32.381-6.566
				c-5.344-2.286-11.058-3.736-16.457-5.931c-5.176-2.105-11.768-6.469-17.65-5.967c-0.085,0.007-0.17-0.005-0.249-0.038
				l-0.063-0.026c-2.447-1.024-2.04-4.629,0.57-5.09c10.938-1.931,24.289,4.587,32.082,9.173c9.937,5.847,26.063,5.3,34.141,13.649
				C347.649,278.316,347.658,278.679,347.444,278.894z"/>
			<path style="fill:#8C5636;" d="M313.297,264.449c-7.793-4.586-21.143-11.105-32.082-9.173c-2.61,0.461-3.017,4.065-0.57,5.09
				l0.063,0.026c0.079,0.033,0.164,0.046,0.249,0.038c5.882-0.502,12.474,3.863,17.65,5.967c5.399,2.195,11.112,3.646,16.457,5.931
				c6.698,2.865,25.83,13.173,32.381,6.566c0.214-0.215,0.205-0.578-0.006-0.796C339.36,269.749,323.234,270.296,313.297,264.449z"
				/>
			<path style="fill:#35211D;" d="M278.614,265.065c3.137,0.316,4.89,0.535,4.89,0.535s-0.558-0.138-1.6-0.379
				C281.017,265.179,279.914,265.127,278.614,265.065z"/>
		</g>
	</g>
	<g>
		<polygon style="fill:#7C492D;" points="31.784,224.165 0.013,224.766 0.013,289.218 82.7,290.471 192.45,289.668 192.45,224.165 
			163.45,226.143 		"/>
		<g>
			<path style="fill:#583524;" d="M146.442,267.044c-15.962-8.447-30.908-21.824-47.25-29.476c-17.874-8.37-47.835,0.62-65.93,6.041
				c-12.606,3.777-22.512,6.54-33.249,7.987v5.693c5.076-0.448,10.087-1.156,14.928-2.204c13.915-3.014,25.691-6.919,39.569-10.04
				c14.703-3.306,29.988-10.09,43.431-2.438c10.919,6.216,20.604,17.569,31.389,24.008c19.544,11.667,40.563,20.142,63.119,15.871
				v-5.136C175.585,280.773,162.15,275.357,146.442,267.044z"/>
			<path style="fill:#8C5636;" d="M181.438,258.721c-5.935-1.483-11.67-3.692-17.225-6.254c-10.15-4.682-19.668-10.579-30.2-14.405
				c-4.772-1.734-9.878-3.118-14.402-5.455c-3.329-1.719-6.479-3.773-9.816-5.469c-1.434-0.729-2.88-1.344-4.339-1.865
				l-33.994-0.511c-12.83,1.441-26.239,3.443-37.889,5.946c-12.059,2.59-22.267,5.874-33.56,7.641v8.051
				c10.948-1.716,21.245-4.86,32.607-7.241c14.934-3.129,29.832-7.019,44.863-9.613c7.61-1.313,17.111-2.887,24.64-0.281
				c6.053,2.094,11.111,6.144,16.984,8.622c7.637,3.221,15.783,5.264,23.185,9.054c3.162,1.619,6.266,3.346,9.421,4.98
				c8.376,4.337,17.085,8.63,26.217,11.094c4.618,1.246,9.794,2.307,14.521,1.431v-5.011
				C188.935,260.378,184.624,259.517,181.438,258.721z"/>
			<path style="fill:#8C5636;" d="M43.098,224.335l-11.314-0.17l-18.898,0.358c-2.127,0.211-4.294,0.418-6.552,0.624
				c-2.097,0.191-4.207,0.346-6.32,0.492v4.977c9.12-0.751,18.242-1.488,27.333-2.624C32.055,227.405,37.468,226.063,43.098,224.335
				z"/>
			<path style="fill:#603823;" d="M148.021,225.912l-29.747-0.447c12.426,4.106,27.253,8.9,31.918,10.339
				c6.565,2.026,15.759,8.108,21.5,11.841c7.2,4.681,13.52,5.27,20.758,5.919v-5.218c-6.974-0.881-13.41-2.01-20.008-6.243
				C164.798,237.198,156.734,229.655,148.021,225.912z"/>
			<path style="fill:#6C4029;" d="M183.566,224.771l-20.115,1.372l-2.408-0.036c11.479,3.425,22.331,8.236,30.149,17.507
				c0.371,0.44,0.806,0.558,1.258,0.448v-11.344C189.03,228.874,186.385,226.421,183.566,224.771z"/>
			<path style="fill:#6C4029;" d="M168.308,285.649c-13.233-1.121-26.622-3.75-39.116-8.349
				c-21.703-7.988-30.495-26.501-54.376-26.124c-21.949,0.347-49.393,6.447-74.802,9.487v6.761
				c11.871-0.421,23.718-1.308,35.469-2.446c15.344-1.486,33.892-6.128,49-2.015c13.947,3.796,23.457,11.159,36.778,16.622
				c12.793,5.247,26.186,8.558,39.863,10.311l31.326-0.229v-3.999c-1.885-0.109-3.774-0.216-5.662-0.199
				C180.652,285.524,174.435,286.168,168.308,285.649z"/>
			<path style="fill:#603823;" d="M13.74,272.033c-3.436-0.488-8.248-0.841-13.726-1.079v3.962c2.056,0.112,3.449,0.378,3.802,0.87
				c1.085,1.511-0.681,2.713-3.802,3.643v9.013C7.572,284.207,23.621,273.438,13.74,272.033z"/>
			<path style="fill:#8C5636;" d="M48.098,275.817c-9.514,0.274-19.706,0.458-28.561,4.446c-4.555,2.052-11.423,4.875-13.61,9.044
				l11.446,0.173c-0.662-6.175,9.47-6.778,15.153-7.604c13.293-1.931,27.308-1.671,40.316,1.676
				c15.011,3.862,20.127,1.054,35.557,2.672c5.732,0.601,12.644,2.15,19.875,3.912l11.743-0.086
				c-16.354-4.126-34.283-12.292-48.535-15.667C77.183,270.998,62.95,275.389,48.098,275.817z"/>
			<path style="fill:#603823;" d="M33.799,287.255c-1.551,0.547-2.963,1.387-4.103,2.412l46.681,0.707
				c-2.763-0.652-5.52-1.317-8.27-1.961C56.853,285.779,45.046,283.29,33.799,287.255z"/>
		</g>
	</g>
</g>
</svg>
